<svg width="3760" height="2091" shape-rendering="crispEdges" xmlns="http://www.w3.org/2000/svg">
  <polygon points="-40.0,-69.2820323028 40.0,-69.2820323028 80.0,0.0 40.0,69.2820323028 -40.0,69.2820323028 -80.0,0.0" fill="#0f1e4b" />
  <polygon points="-40.0,69.2820323028 40.0,69.2820323028 80.0,138.5640646055 40.0,207.8460969083 -40.0,207.8460969083 -80.0,138.5640646055" fill="#0e1d4a" />
  <polygon points="-40.0,207.8460969083 40.0,207.8460969083 80.0,277.128129211 40.0,346.4101615138 -40.0,346.4101615138 -80.0,277.128129211" fill="#0f1e4c" />
  <polygon points="-40.0,346.4101615138 40.0,346.4101615138 80.0,415.6921938165 40.0,484.9742261193 -40.0,484.9742261193 -80.0,415.6921938165" fill="#10204e" />
  <polygon points="-40.0,484.9742261193 40.0,484.9742261193 80.0,554.256258422 40.0,623.5382907248 -40.0,623.5382907248 -80.0,554.256258422" fill="#122051" />
  <polygon points="-40.0,623.5382907248 40.0,623.5382907248 80.0,692.8203230276 40.0,762.1023553303 -40.0,762.1023553303 -80.0,692.8203230276" fill="#172355" />
  <polygon points="-40.0,762.1023553303 40.0,762.1023553303 80.0,831.3843876331 40.0,900.6664199358 -40.0,900.6664199358 -80.0,831.3843876331" fill="#252557" />
  <polygon points="-40.0,900.6664199358 40.0,900.6664199358 80.0,969.9484522386 40.0,1039.2304845413 -40.0,1039.2304845413 -80.0,969.9484522386" fill="#392a2f" />
  <polygon points="-40.0,1039.2304845413 40.0,1039.2304845413 80.0,1108.5125168441 40.0,1177.7945491468 -40.0,1177.7945491468 -80.0,1108.5125168441" fill="#120f1f" />
  <polygon points="-40.0,1177.7945491468 40.0,1177.7945491468 80.0,1247.0765814496 40.0,1316.3586137523 -40.0,1316.3586137523 -80.0,1247.0765814496" fill="#1b1821" />
  <polygon points="-40.0,1316.3586137523 40.0,1316.3586137523 80.0,1385.6406460551 40.0,1454.9226783579 -40.0,1454.9226783579 -80.0,1385.6406460551" fill="#20162d" />
  <polygon points="-40.0,1454.9226783579 40.0,1454.9226783579 80.0,1524.2047106606 40.0,1593.4867429634 -40.0,1593.4867429634 -80.0,1524.2047106606" fill="#151227" />
  <polygon points="-40.0,1593.4867429634 40.0,1593.4867429634 80.0,1662.7687752661 40.0,1732.0508075689 -40.0,1732.0508075689 -80.0,1662.7687752661" fill="#161327" />
  <polygon points="-40.0,1732.0508075689 40.0,1732.0508075689 80.0,1801.3328398716 40.0,1870.6148721744 -40.0,1870.6148721744 -80.0,1801.3328398716" fill="#3f2a41" />
  <polygon points="-40.0,1870.6148721744 40.0,1870.6148721744 80.0,1939.8969044771 40.0,2009.1789367799 -40.0,2009.1789367799 -80.0,1939.8969044771" fill="#321d2b" />
  <polygon points="-40.0,2009.1789367799 40.0,2009.1789367799 80.0,2078.4609690827 40.0,2147.7430013854 -40.0,2147.7430013854 -80.0,2078.4609690827" fill="#1a1222" />
  <polygon points="80.0,0.0 160.0,0.0 200.0,69.2820323028 160.0,138.5640646055 80.0,138.5640646055 40.0,69.2820323028" fill="#0e1d4b" />
  <polygon points="80.0,138.5640646055 160.0,138.5640646055 200.0,207.8460969083 160.0,277.128129211 80.0,277.128129211 40.0,207.8460969083" fill="#0e1e4c" />
  <polygon points="80.0,277.128129211 160.0,277.128129211 200.0,346.4101615138 160.0,415.6921938165 80.0,415.6921938165 40.0,346.4101615138" fill="#0e1f4d" />
  <polygon points="80.0,415.6921938165 160.0,415.6921938165 200.0,484.9742261193 160.0,554.256258422 80.0,554.256258422 40.0,484.9742261193" fill="#102053" />
  <polygon points="80.0,554.256258422 160.0,554.256258422 200.0,623.5382907248 160.0,692.8203230276 80.0,692.8203230276 40.0,623.5382907248" fill="#152256" />
  <polygon points="80.0,692.8203230276 160.0,692.8203230276 200.0,762.1023553303 160.0,831.3843876331 80.0,831.3843876331 40.0,762.1023553303" fill="#1c265a" />
  <polygon points="80.0,831.3843876331 160.0,831.3843876331 200.0,900.6664199358 160.0,969.9484522386 80.0,969.9484522386 40.0,900.6664199358" fill="#2e285c" />
  <polygon points="80.0,969.9484522386 160.0,969.9484522386 200.0,1039.2304845413 160.0,1108.5125168441 80.0,1108.5125168441 40.0,1039.2304845413" fill="#543647" />
  <polygon points="80.0,1108.5125168441 160.0,1108.5125168441 200.0,1177.7945491468 160.0,1247.0765814496 80.0,1247.0765814496 40.0,1177.7945491468" fill="#241a24" />
  <polygon points="80.0,1247.0765814496 160.0,1247.0765814496 200.0,1316.3586137523 160.0,1385.6406460551 80.0,1385.6406460551 40.0,1316.3586137523" fill="#492842" />
  <polygon points="80.0,1385.6406460551 160.0,1385.6406460551 200.0,1454.9226783579 160.0,1524.2047106606 80.0,1524.2047106606 40.0,1454.9226783579" fill="#1d1b1e" />
  <polygon points="80.0,1524.2047106606 160.0,1524.2047106606 200.0,1593.4867429634 160.0,1662.7687752661 80.0,1662.7687752661 40.0,1593.4867429634" fill="#271e1d" />
  <polygon points="80.0,1662.7687752661 160.0,1662.7687752661 200.0,1732.0508075689 160.0,1801.3328398716 80.0,1801.3328398716 40.0,1732.0508075689" fill="#252338" />
  <polygon points="80.0,1801.3328398716 160.0,1801.3328398716 200.0,1870.6148721744 160.0,1939.8969044771 80.0,1939.8969044771 40.0,1870.6148721744" fill="#502932" />
  <polygon points="80.0,1939.8969044771 160.0,1939.8969044771 200.0,2009.1789367799 160.0,2078.4609690827 80.0,2078.4609690827 40.0,2009.1789367799" fill="#44252c" />
  <polygon points="80.0,2078.4609690827 160.0,2078.4609690827 200.0,2147.7430013854 160.0,2217.0250336882 80.0,2217.0250336882 40.0,2147.7430013854" fill="#171124" />
  <polygon points="200.0,-69.2820323028 280.0,-69.2820323028 320.0,0.0 280.0,69.2820323028 200.0,69.2820323028 160.0,0.0" fill="#0e1e4c" />
  <polygon points="200.0,69.2820323028 280.0,69.2820323028 320.0,138.5640646055 280.0,207.8460969083 200.0,207.8460969083 160.0,138.5640646055" fill="#0d1d4b" />
  <polygon points="200.0,207.8460969083 280.0,207.8460969083 320.0,277.128129211 280.0,346.4101615138 200.0,346.4101615138 160.0,277.128129211" fill="#0e1e4e" />
  <polygon points="200.0,346.4101615138 280.0,346.4101615138 320.0,415.6921938165 280.0,484.9742261193 200.0,484.9742261193 160.0,415.6921938165" fill="#101f52" />
  <polygon points="200.0,484.9742261193 280.0,484.9742261193 320.0,554.256258422 280.0,623.5382907248 200.0,623.5382907248 160.0,554.256258422" fill="#122156" />
  <polygon points="200.0,623.5382907248 280.0,623.5382907248 320.0,692.8203230276 280.0,762.1023553303 200.0,762.1023553303 160.0,692.8203230276" fill="#19245a" />
  <polygon points="200.0,762.1023553303 280.0,762.1023553303 320.0,831.3843876331 280.0,900.6664199358 200.0,900.6664199358 160.0,831.3843876331" fill="#29275f" />
  <polygon points="200.0,900.6664199358 280.0,900.6664199358 320.0,969.9484522386 280.0,1039.2304845413 200.0,1039.2304845413 160.0,969.9484522386" fill="#a58ad2" />
  <polygon points="200.0,1039.2304845413 280.0,1039.2304845413 320.0,1108.5125168441 280.0,1177.7945491468 200.0,1177.7945491468 160.0,1108.5125168441" fill="#463464" />
  <polygon points="200.0,1177.7945491468 280.0,1177.7945491468 320.0,1247.0765814496 280.0,1316.3586137523 200.0,1316.3586137523 160.0,1247.0765814496" fill="#392926" />
  <polygon points="200.0,1316.3586137523 280.0,1316.3586137523 320.0,1385.6406460551 280.0,1454.9226783579 200.0,1454.9226783579 160.0,1385.6406460551" fill="#37212b" />
  <polygon points="200.0,1454.9226783579 280.0,1454.9226783579 320.0,1524.2047106606 280.0,1593.4867429634 200.0,1593.4867429634 160.0,1524.2047106606" fill="#3b2622" />
  <polygon points="200.0,1593.4867429634 280.0,1593.4867429634 320.0,1662.7687752661 280.0,1732.0508075689 200.0,1732.0508075689 160.0,1662.7687752661" fill="#2f2a42" />
  <polygon points="200.0,1732.0508075689 280.0,1732.0508075689 320.0,1801.3328398716 280.0,1870.6148721744 200.0,1870.6148721744 160.0,1801.3328398716" fill="#302c48" />
  <polygon points="200.0,1870.6148721744 280.0,1870.6148721744 320.0,1939.8969044771 280.0,2009.1789367799 200.0,2009.1789367799 160.0,1939.8969044771" fill="#532e2d" />
  <polygon points="200.0,2009.1789367799 280.0,2009.1789367799 320.0,2078.4609690827 280.0,2147.7430013854 200.0,2147.7430013854 160.0,2078.4609690827" fill="#291a2a" />
  <polygon points="320.0,0.0 400.0,0.0 440.0,69.2820323028 400.0,138.5640646055 320.0,138.5640646055 280.0,69.2820323028" fill="#0d1c4b" />
  <polygon points="320.0,138.5640646055 400.0,138.5640646055 440.0,207.8460969083 400.0,277.128129211 320.0,277.128129211 280.0,207.8460969083" fill="#0d1d4d" />
  <polygon points="320.0,277.128129211 400.0,277.128129211 440.0,346.4101615138 400.0,415.6921938165 320.0,415.6921938165 280.0,346.4101615138" fill="#0f1d4e" />
  <polygon points="320.0,415.6921938165 400.0,415.6921938165 440.0,484.9742261193 400.0,554.256258422 320.0,554.256258422 280.0,484.9742261193" fill="#142054" />
  <polygon points="320.0,554.256258422 400.0,554.256258422 440.0,623.5382907248 400.0,692.8203230276 320.0,692.8203230276 280.0,623.5382907248" fill="#1a2359" />
  <polygon points="320.0,692.8203230276 400.0,692.8203230276 440.0,762.1023553303 400.0,831.3843876331 320.0,831.3843876331 280.0,762.1023553303" fill="#21265e" />
  <polygon points="320.0,831.3843876331 400.0,831.3843876331 440.0,900.6664199358 400.0,969.9484522386 320.0,969.9484522386 280.0,900.6664199358" fill="#2c2d66" />
  <polygon points="320.0,969.9484522386 400.0,969.9484522386 440.0,1039.2304845413 400.0,1108.5125168441 320.0,1108.5125168441 280.0,1039.2304845413" fill="#39346b" />
  <polygon points="320.0,1108.5125168441 400.0,1108.5125168441 440.0,1177.7945491468 400.0,1247.0765814496 320.0,1247.0765814496 280.0,1177.7945491468" fill="#513a6d" />
  <polygon points="320.0,1247.0765814496 400.0,1247.0765814496 440.0,1316.3586137523 400.0,1385.6406460551 320.0,1385.6406460551 280.0,1316.3586137523" fill="#663c5a" />
  <polygon points="320.0,1385.6406460551 400.0,1385.6406460551 440.0,1454.9226783579 400.0,1524.2047106606 320.0,1524.2047106606 280.0,1454.9226783579" fill="#6e3d5e" />
  <polygon points="320.0,1524.2047106606 400.0,1524.2047106606 440.0,1593.4867429634 400.0,1662.7687752661 320.0,1662.7687752661 280.0,1593.4867429634" fill="#52416c" />
  <polygon points="320.0,1662.7687752661 400.0,1662.7687752661 440.0,1732.0508075689 400.0,1801.3328398716 320.0,1801.3328398716 280.0,1732.0508075689" fill="#393758" />
  <polygon points="320.0,1801.3328398716 400.0,1801.3328398716 440.0,1870.6148721744 400.0,1939.8969044771 320.0,1939.8969044771 280.0,1870.6148721744" fill="#1e2238" />
  <polygon points="320.0,1939.8969044771 400.0,1939.8969044771 440.0,2009.1789367799 400.0,2078.4609690827 320.0,2078.4609690827 280.0,2009.1789367799" fill="#311f25" />
  <polygon points="320.0,2078.4609690827 400.0,2078.4609690827 440.0,2147.7430013854 400.0,2217.0250336882 320.0,2217.0250336882 280.0,2147.7430013854" fill="#1e1422" />
  <polygon points="440.0,-69.2820323028 520.0,-69.2820323028 560.0,0.0 520.0,69.2820323028 440.0,69.2820323028 400.0,0.0" fill="#0d1c4b" />
  <polygon points="440.0,69.2820323028 520.0,69.2820323028 560.0,138.5640646055 520.0,207.8460969083 440.0,207.8460969083 400.0,138.5640646055" fill="#0d1c4c" />
  <polygon points="440.0,207.8460969083 520.0,207.8460969083 560.0,277.128129211 520.0,346.4101615138 440.0,346.4101615138 400.0,277.128129211" fill="#0e1d4f" />
  <polygon points="440.0,346.4101615138 520.0,346.4101615138 560.0,415.6921938165 520.0,484.9742261193 440.0,484.9742261193 400.0,415.6921938165" fill="#151f52" />
  <polygon points="440.0,484.9742261193 520.0,484.9742261193 560.0,554.256258422 520.0,623.5382907248 440.0,623.5382907248 400.0,554.256258422" fill="#1b2158" />
  <polygon points="440.0,623.5382907248 520.0,623.5382907248 560.0,692.8203230276 520.0,762.1023553303 440.0,762.1023553303 400.0,692.8203230276" fill="#1e245e" />
  <polygon points="440.0,762.1023553303 520.0,762.1023553303 560.0,831.3843876331 520.0,900.6664199358 440.0,900.6664199358 400.0,831.3843876331" fill="#242966" />
  <polygon points="440.0,900.6664199358 520.0,900.6664199358 560.0,969.9484522386 520.0,1039.2304845413 440.0,1039.2304845413 400.0,969.9484522386" fill="#2b2e66" />
  <polygon points="440.0,1039.2304845413 520.0,1039.2304845413 560.0,1108.5125168441 520.0,1177.7945491468 440.0,1177.7945491468 400.0,1108.5125168441" fill="#3d376d" />
  <polygon points="440.0,1177.7945491468 520.0,1177.7945491468 560.0,1247.0765814496 520.0,1316.3586137523 440.0,1316.3586137523 400.0,1247.0765814496" fill="#594175" />
  <polygon points="440.0,1316.3586137523 520.0,1316.3586137523 560.0,1385.6406460551 520.0,1454.9226783579 440.0,1454.9226783579 400.0,1385.6406460551" fill="#7a4871" />
  <polygon points="440.0,1454.9226783579 520.0,1454.9226783579 560.0,1524.2047106606 520.0,1593.4867429634 440.0,1593.4867429634 400.0,1524.2047106606" fill="#363259" />
  <polygon points="440.0,1593.4867429634 520.0,1593.4867429634 560.0,1662.7687752661 520.0,1732.0508075689 440.0,1732.0508075689 400.0,1662.7687752661" fill="#494571" />
  <polygon points="440.0,1732.0508075689 520.0,1732.0508075689 560.0,1801.3328398716 520.0,1870.6148721744 440.0,1870.6148721744 400.0,1801.3328398716" fill="#272c53" />
  <polygon points="440.0,1870.6148721744 520.0,1870.6148721744 560.0,1939.8969044771 520.0,2009.1789367799 440.0,2009.1789367799 400.0,1939.8969044771" fill="#1e1d2e" />
  <polygon points="440.0,2009.1789367799 520.0,2009.1789367799 560.0,2078.4609690827 520.0,2147.7430013854 440.0,2147.7430013854 400.0,2078.4609690827" fill="#2a1922" />
  <polygon points="560.0,0.0 640.0,0.0 680.0,69.2820323028 640.0,138.5640646055 560.0,138.5640646055 520.0,69.2820323028" fill="#0f1e4f" />
  <polygon points="560.0,138.5640646055 640.0,138.5640646055 680.0,207.8460969083 640.0,277.128129211 560.0,277.128129211 520.0,207.8460969083" fill="#0c1c4f" />
  <polygon points="560.0,277.128129211 640.0,277.128129211 680.0,346.4101615138 640.0,415.6921938165 560.0,415.6921938165 520.0,346.4101615138" fill="#152053" />
  <polygon points="560.0,415.6921938165 640.0,415.6921938165 680.0,484.9742261193 640.0,554.256258422 560.0,554.256258422 520.0,484.9742261193" fill="#182057" />
  <polygon points="560.0,554.256258422 640.0,554.256258422 680.0,623.5382907248 640.0,692.8203230276 560.0,692.8203230276 520.0,623.5382907248" fill="#1a225d" />
  <polygon points="560.0,692.8203230276 640.0,692.8203230276 680.0,762.1023553303 640.0,831.3843876331 560.0,831.3843876331 520.0,762.1023553303" fill="#26306c" />
  <polygon points="560.0,831.3843876331 640.0,831.3843876331 680.0,900.6664199358 640.0,969.9484522386 560.0,969.9484522386 520.0,900.6664199358" fill="#262b62" />
  <polygon points="560.0,969.9484522386 640.0,969.9484522386 680.0,1039.2304845413 640.0,1108.5125168441 560.0,1108.5125168441 520.0,1039.2304845413" fill="#36346e" />
  <polygon points="560.0,1108.5125168441 640.0,1108.5125168441 680.0,1177.7945491468 640.0,1247.0765814496 560.0,1247.0765814496 520.0,1177.7945491468" fill="#4e3f7a" />
  <polygon points="560.0,1247.0765814496 640.0,1247.0765814496 680.0,1316.3586137523 640.0,1385.6406460551 560.0,1385.6406460551 520.0,1316.3586137523" fill="#6b4677" />
  <polygon points="560.0,1385.6406460551 640.0,1385.6406460551 680.0,1454.9226783579 640.0,1524.2047106606 560.0,1524.2047106606 520.0,1454.9226783579" fill="#453862" />
  <polygon points="560.0,1524.2047106606 640.0,1524.2047106606 680.0,1593.4867429634 640.0,1662.7687752661 560.0,1662.7687752661 520.0,1593.4867429634" fill="#654f7e" />
  <polygon points="560.0,1662.7687752661 640.0,1662.7687752661 680.0,1732.0508075689 640.0,1801.3328398716 560.0,1801.3328398716 520.0,1732.0508075689" fill="#4c3e5a" />
  <polygon points="560.0,1801.3328398716 640.0,1801.3328398716 680.0,1870.6148721744 640.0,1939.8969044771 560.0,1939.8969044771 520.0,1870.6148721744" fill="#1b223c" />
  <polygon points="560.0,1939.8969044771 640.0,1939.8969044771 680.0,2009.1789367799 640.0,2078.4609690827 560.0,2078.4609690827 520.0,2009.1789367799" fill="#2d242a" />
  <polygon points="560.0,2078.4609690827 640.0,2078.4609690827 680.0,2147.7430013854 640.0,2217.0250336882 560.0,2217.0250336882 520.0,2147.7430013854" fill="#1f111b" />
  <polygon points="680.0,-69.2820323028 760.0,-69.2820323028 800.0,0.0 760.0,69.2820323028 680.0,69.2820323028 640.0,0.0" fill="#0e1d4c" />
  <polygon points="680.0,69.2820323028 760.0,69.2820323028 800.0,138.5640646055 760.0,207.8460969083 680.0,207.8460969083 640.0,138.5640646055" fill="#0c1b4d" />
  <polygon points="680.0,207.8460969083 760.0,207.8460969083 800.0,277.128129211 760.0,346.4101615138 680.0,346.4101615138 640.0,277.128129211" fill="#0f1d50" />
  <polygon points="680.0,346.4101615138 760.0,346.4101615138 800.0,415.6921938165 760.0,484.9742261193 680.0,484.9742261193 640.0,415.6921938165" fill="#141f55" />
  <polygon points="680.0,484.9742261193 760.0,484.9742261193 800.0,554.256258422 760.0,623.5382907248 680.0,623.5382907248 640.0,554.256258422" fill="#16215c" />
  <polygon points="680.0,623.5382907248 760.0,623.5382907248 800.0,692.8203230276 760.0,762.1023553303 680.0,762.1023553303 640.0,692.8203230276" fill="#2b3675" />
  <polygon points="680.0,762.1023553303 760.0,762.1023553303 800.0,831.3843876331 760.0,900.6664199358 680.0,900.6664199358 640.0,831.3843876331" fill="#1e295d" />
  <polygon points="680.0,900.6664199358 760.0,900.6664199358 800.0,969.9484522386 760.0,1039.2304845413 680.0,1039.2304845413 640.0,969.9484522386" fill="#2e3069" />
  <polygon points="680.0,1039.2304845413 760.0,1039.2304845413 800.0,1108.5125168441 760.0,1177.7945491468 680.0,1177.7945491468 640.0,1108.5125168441" fill="#463f7b" />
  <polygon points="680.0,1177.7945491468 760.0,1177.7945491468 800.0,1247.0765814496 760.0,1316.3586137523 680.0,1316.3586137523 640.0,1247.0765814496" fill="#5f437a" />
  <polygon points="680.0,1316.3586137523 760.0,1316.3586137523 800.0,1385.6406460551 760.0,1454.9226783579 680.0,1454.9226783579 640.0,1385.6406460551" fill="#83507a" />
  <polygon points="680.0,1454.9226783579 760.0,1454.9226783579 800.0,1524.2047106606 760.0,1593.4867429634 680.0,1593.4867429634 640.0,1524.2047106606" fill="#59416f" />
  <polygon points="680.0,1593.4867429634 760.0,1593.4867429634 800.0,1662.7687752661 760.0,1732.0508075689 680.0,1732.0508075689 640.0,1662.7687752661" fill="#574c72" />
  <polygon points="680.0,1732.0508075689 760.0,1732.0508075689 800.0,1801.3328398716 760.0,1870.6148721744 680.0,1870.6148721744 640.0,1801.3328398716" fill="#313254" />
  <polygon points="680.0,1870.6148721744 760.0,1870.6148721744 800.0,1939.8969044771 760.0,2009.1789367799 680.0,2009.1789367799 640.0,1939.8969044771" fill="#252336" />
  <polygon points="680.0,2009.1789367799 760.0,2009.1789367799 800.0,2078.4609690827 760.0,2147.7430013854 680.0,2147.7430013854 640.0,2078.4609690827" fill="#351c22" />
  <polygon points="800.0,0.0 880.0,0.0 920.0,69.2820323028 880.0,138.5640646055 800.0,138.5640646055 760.0,69.2820323028" fill="#0c1a4a" />
  <polygon points="800.0,138.5640646055 880.0,138.5640646055 920.0,207.8460969083 880.0,277.128129211 800.0,277.128129211 760.0,207.8460969083" fill="#0d1d4f" />
  <polygon points="800.0,277.128129211 880.0,277.128129211 920.0,346.4101615138 880.0,415.6921938165 800.0,415.6921938165 760.0,346.4101615138" fill="#132154" />
  <polygon points="800.0,415.6921938165 880.0,415.6921938165 920.0,484.9742261193 880.0,554.256258422 800.0,554.256258422 760.0,484.9742261193" fill="#142058" />
  <polygon points="800.0,554.256258422 880.0,554.256258422 920.0,623.5382907248 880.0,692.8203230276 800.0,692.8203230276 760.0,623.5382907248" fill="#3e4995" />
  <polygon points="800.0,692.8203230276 880.0,692.8203230276 920.0,762.1023553303 880.0,831.3843876331 800.0,831.3843876331 760.0,762.1023553303" fill="#1d295b" />
  <polygon points="800.0,831.3843876331 880.0,831.3843876331 920.0,900.6664199358 880.0,969.9484522386 800.0,969.9484522386 760.0,900.6664199358" fill="#252c63" />
  <polygon points="800.0,969.9484522386 880.0,969.9484522386 920.0,1039.2304845413 880.0,1108.5125168441 800.0,1108.5125168441 760.0,1039.2304845413" fill="#3d3d7a" />
  <polygon points="800.0,1108.5125168441 880.0,1108.5125168441 920.0,1177.7945491468 880.0,1247.0765814496 800.0,1247.0765814496 760.0,1177.7945491468" fill="#513f78" />
  <polygon points="800.0,1247.0765814496 880.0,1247.0765814496 920.0,1316.3586137523 880.0,1385.6406460551 800.0,1385.6406460551 760.0,1316.3586137523" fill="#744a7d" />
  <polygon points="800.0,1385.6406460551 880.0,1385.6406460551 920.0,1454.9226783579 880.0,1524.2047106606 800.0,1524.2047106606 760.0,1454.9226783579" fill="#9b5e7e" />
  <polygon points="800.0,1524.2047106606 880.0,1524.2047106606 920.0,1593.4867429634 880.0,1662.7687752661 800.0,1662.7687752661 760.0,1593.4867429634" fill="#855e8b" />
  <polygon points="800.0,1662.7687752661 880.0,1662.7687752661 920.0,1732.0508075689 880.0,1801.3328398716 800.0,1801.3328398716 760.0,1732.0508075689" fill="#2a2b4b" />
  <polygon points="800.0,1801.3328398716 880.0,1801.3328398716 920.0,1870.6148721744 880.0,1939.8969044771 800.0,1939.8969044771 760.0,1870.6148721744" fill="#1d223c" />
  <polygon points="800.0,1939.8969044771 880.0,1939.8969044771 920.0,2009.1789367799 880.0,2078.4609690827 800.0,2078.4609690827 760.0,2009.1789367799" fill="#221c31" />
  <polygon points="800.0,2078.4609690827 880.0,2078.4609690827 920.0,2147.7430013854 880.0,2217.0250336882 800.0,2217.0250336882 760.0,2147.7430013854" fill="#231521" />
  <polygon points="920.0,-69.2820323028 1000.0,-69.2820323028 1040.0,0.0 1000.0,69.2820323028 920.0,69.2820323028 880.0,0.0" fill="#0d1b4a" />
  <polygon points="920.0,69.2820323028 1000.0,69.2820323028 1040.0,138.5640646055 1000.0,207.8460969083 920.0,207.8460969083 880.0,138.5640646055" fill="#0c1b4d" />
  <polygon points="920.0,207.8460969083 1000.0,207.8460969083 1040.0,277.128129211 1000.0,346.4101615138 920.0,346.4101615138 880.0,277.128129211" fill="#0d1d51" />
  <polygon points="920.0,346.4101615138 1000.0,346.4101615138 1040.0,415.6921938165 1000.0,484.9742261193 920.0,484.9742261193 880.0,415.6921938165" fill="#112057" />
  <polygon points="920.0,484.9742261193 1000.0,484.9742261193 1040.0,554.256258422 1000.0,623.5382907248 920.0,623.5382907248 880.0,554.256258422" fill="#474b8f" />
  <polygon points="920.0,623.5382907248 1000.0,623.5382907248 1040.0,692.8203230276 1000.0,762.1023553303 920.0,762.1023553303 880.0,692.8203230276" fill="#222d61" />
  <polygon points="920.0,762.1023553303 1000.0,762.1023553303 1040.0,831.3843876331 1000.0,900.6664199358 920.0,900.6664199358 880.0,831.3843876331" fill="#1d285c" />
  <polygon points="920.0,900.6664199358 1000.0,900.6664199358 1040.0,969.9484522386 1000.0,1039.2304845413 920.0,1039.2304845413 880.0,969.9484522386" fill="#343976" />
  <polygon points="920.0,1039.2304845413 1000.0,1039.2304845413 1040.0,1108.5125168441 1000.0,1177.7945491468 920.0,1177.7945491468 880.0,1108.5125168441" fill="#463a76" />
  <polygon points="920.0,1177.7945491468 1000.0,1177.7945491468 1040.0,1247.0765814496 1000.0,1316.3586137523 920.0,1316.3586137523 880.0,1247.0765814496" fill="#64467c" />
  <polygon points="920.0,1316.3586137523 1000.0,1316.3586137523 1040.0,1385.6406460551 1000.0,1454.9226783579 920.0,1454.9226783579 880.0,1385.6406460551" fill="#8c5581" />
  <polygon points="920.0,1454.9226783579 1000.0,1454.9226783579 1040.0,1524.2047106606 1000.0,1593.4867429634 920.0,1593.4867429634 880.0,1524.2047106606" fill="#ab6b82" />
  <polygon points="920.0,1593.4867429634 1000.0,1593.4867429634 1040.0,1662.7687752661 1000.0,1732.0508075689 920.0,1732.0508075689 880.0,1662.7687752661" fill="#55486f" />
  <polygon points="920.0,1732.0508075689 1000.0,1732.0508075689 1040.0,1801.3328398716 1000.0,1870.6148721744 920.0,1870.6148721744 880.0,1801.3328398716" fill="#212441" />
  <polygon points="920.0,1870.6148721744 1000.0,1870.6148721744 1040.0,1939.8969044771 1000.0,2009.1789367799 920.0,2009.1789367799 880.0,1939.8969044771" fill="#37303b" />
  <polygon points="920.0,2009.1789367799 1000.0,2009.1789367799 1040.0,2078.4609690827 1000.0,2147.7430013854 920.0,2147.7430013854 880.0,2078.4609690827" fill="#251621" />
  <polygon points="1040.0,0.0 1120.0,0.0 1160.0,69.2820323028 1120.0,138.5640646055 1040.0,138.5640646055 1000.0,69.2820323028" fill="#0b1a4b" />
  <polygon points="1040.0,138.5640646055 1120.0,138.5640646055 1160.0,207.8460969083 1120.0,277.128129211 1040.0,277.128129211 1000.0,207.8460969083" fill="#0d1d50" />
  <polygon points="1040.0,277.128129211 1120.0,277.128129211 1160.0,346.4101615138 1120.0,415.6921938165 1040.0,415.6921938165 1000.0,346.4101615138" fill="#101f55" />
  <polygon points="1040.0,415.6921938165 1120.0,415.6921938165 1160.0,484.9742261193 1120.0,554.256258422 1040.0,554.256258422 1000.0,484.9742261193" fill="#15215d" />
  <polygon points="1040.0,554.256258422 1120.0,554.256258422 1160.0,623.5382907248 1120.0,692.8203230276 1040.0,692.8203230276 1000.0,623.5382907248" fill="#5a57a6" />
  <polygon points="1040.0,692.8203230276 1120.0,692.8203230276 1160.0,762.1023553303 1120.0,831.3843876331 1040.0,831.3843876331 1000.0,762.1023553303" fill="#1d2958" />
  <polygon points="1040.0,831.3843876331 1120.0,831.3843876331 1160.0,900.6664199358 1120.0,969.9484522386 1040.0,969.9484522386 1000.0,900.6664199358" fill="#263269" />
  <polygon points="1040.0,969.9484522386 1120.0,969.9484522386 1160.0,1039.2304845413 1120.0,1108.5125168441 1040.0,1108.5125168441 1000.0,1039.2304845413" fill="#373670" />
  <polygon points="1040.0,1108.5125168441 1120.0,1108.5125168441 1160.0,1177.7945491468 1120.0,1247.0765814496 1040.0,1247.0765814496 1000.0,1177.7945491468" fill="#55407a" />
  <polygon points="1040.0,1247.0765814496 1120.0,1247.0765814496 1160.0,1316.3586137523 1120.0,1385.6406460551 1040.0,1385.6406460551 1000.0,1316.3586137523" fill="#7a4e81" />
  <polygon points="1040.0,1385.6406460551 1120.0,1385.6406460551 1160.0,1454.9226783579 1120.0,1524.2047106606 1040.0,1524.2047106606 1000.0,1454.9226783579" fill="#a06484" />
  <polygon points="1040.0,1524.2047106606 1120.0,1524.2047106606 1160.0,1593.4867429634 1120.0,1662.7687752661 1040.0,1662.7687752661 1000.0,1593.4867429634" fill="#956d97" />
  <polygon points="1040.0,1662.7687752661 1120.0,1662.7687752661 1160.0,1732.0508075689 1120.0,1801.3328398716 1040.0,1801.3328398716 1000.0,1732.0508075689" fill="#292c4e" />
  <polygon points="1040.0,1801.3328398716 1120.0,1801.3328398716 1160.0,1870.6148721744 1120.0,1939.8969044771 1040.0,1939.8969044771 1000.0,1870.6148721744" fill="#1d1f33" />
  <polygon points="1040.0,1939.8969044771 1120.0,1939.8969044771 1160.0,2009.1789367799 1120.0,2078.4609690827 1040.0,2078.4609690827 1000.0,2009.1789367799" fill="#572a28" />
  <polygon points="1040.0,2078.4609690827 1120.0,2078.4609690827 1160.0,2147.7430013854 1120.0,2217.0250336882 1040.0,2217.0250336882 1000.0,2147.7430013854" fill="#1c0f17" />
  <polygon points="1160.0,-69.2820323028 1240.0,-69.2820323028 1280.0,0.0 1240.0,69.2820323028 1160.0,69.2820323028 1120.0,0.0" fill="#0d1b4a" />
  <polygon points="1160.0,69.2820323028 1240.0,69.2820323028 1280.0,138.5640646055 1240.0,207.8460969083 1160.0,207.8460969083 1120.0,138.5640646055" fill="#0d1d4e" />
  <polygon points="1160.0,207.8460969083 1240.0,207.8460969083 1280.0,277.128129211 1240.0,346.4101615138 1160.0,346.4101615138 1120.0,277.128129211" fill="#0e1d52" />
  <polygon points="1160.0,346.4101615138 1240.0,346.4101615138 1280.0,415.6921938165 1240.0,484.9742261193 1160.0,484.9742261193 1120.0,415.6921938165" fill="#13215b" />
  <polygon points="1160.0,484.9742261193 1240.0,484.9742261193 1280.0,554.256258422 1240.0,623.5382907248 1160.0,623.5382907248 1120.0,554.256258422" fill="#353b7a" />
  <polygon points="1160.0,623.5382907248 1240.0,623.5382907248 1280.0,692.8203230276 1240.0,762.1023553303 1160.0,762.1023553303 1120.0,692.8203230276" fill="#3a4288" />
  <polygon points="1160.0,762.1023553303 1240.0,762.1023553303 1280.0,831.3843876331 1240.0,900.6664199358 1160.0,900.6664199358 1120.0,831.3843876331" fill="#1f2d5e" />
  <polygon points="1160.0,900.6664199358 1240.0,900.6664199358 1280.0,969.9484522386 1240.0,1039.2304845413 1160.0,1039.2304845413 1120.0,969.9484522386" fill="#272f65" />
  <polygon points="1160.0,1039.2304845413 1240.0,1039.2304845413 1280.0,1108.5125168441 1240.0,1177.7945491468 1160.0,1177.7945491468 1120.0,1108.5125168441" fill="#413a73" />
  <polygon points="1160.0,1177.7945491468 1240.0,1177.7945491468 1280.0,1247.0765814496 1240.0,1316.3586137523 1160.0,1316.3586137523 1120.0,1247.0765814496" fill="#65477f" />
  <polygon points="1160.0,1316.3586137523 1240.0,1316.3586137523 1280.0,1385.6406460551 1240.0,1454.9226783579 1160.0,1454.9226783579 1120.0,1385.6406460551" fill="#8f5a85" />
  <polygon points="1160.0,1454.9226783579 1240.0,1454.9226783579 1280.0,1524.2047106606 1240.0,1593.4867429634 1160.0,1593.4867429634 1120.0,1524.2047106606" fill="#a97187" />
  <polygon points="1160.0,1593.4867429634 1240.0,1593.4867429634 1280.0,1662.7687752661 1240.0,1732.0508075689 1160.0,1732.0508075689 1120.0,1662.7687752661" fill="#575078" />
  <polygon points="1160.0,1732.0508075689 1240.0,1732.0508075689 1280.0,1801.3328398716 1240.0,1870.6148721744 1160.0,1870.6148721744 1120.0,1801.3328398716" fill="#1e223b" />
  <polygon points="1160.0,1870.6148721744 1240.0,1870.6148721744 1280.0,1939.8969044771 1240.0,2009.1789367799 1160.0,2009.1789367799 1120.0,1939.8969044771" fill="#1d1e2c" />
  <polygon points="1160.0,2009.1789367799 1240.0,2009.1789367799 1280.0,2078.4609690827 1240.0,2147.7430013854 1160.0,2147.7430013854 1120.0,2078.4609690827" fill="#3f201f" />
  <polygon points="1280.0,0.0 1360.0,0.0 1400.0,69.2820323028 1360.0,138.5640646055 1280.0,138.5640646055 1240.0,69.2820323028" fill="#0c1b4c" />
  <polygon points="1280.0,138.5640646055 1360.0,138.5640646055 1400.0,207.8460969083 1360.0,277.128129211 1280.0,277.128129211 1240.0,207.8460969083" fill="#0d1d50" />
  <polygon points="1280.0,277.128129211 1360.0,277.128129211 1400.0,346.4101615138 1360.0,415.6921938165 1280.0,415.6921938165 1240.0,346.4101615138" fill="#101f56" />
  <polygon points="1280.0,415.6921938165 1360.0,415.6921938165 1400.0,484.9742261193 1360.0,554.256258422 1280.0,554.256258422 1240.0,484.9742261193" fill="#162360" />
  <polygon points="1280.0,554.256258422 1360.0,554.256258422 1400.0,623.5382907248 1360.0,692.8203230276 1280.0,692.8203230276 1240.0,623.5382907248" fill="#635f9f" />
  <polygon points="1280.0,692.8203230276 1360.0,692.8203230276 1400.0,762.1023553303 1360.0,831.3843876331 1280.0,831.3843876331 1240.0,762.1023553303" fill="#3f478b" />
  <polygon points="1280.0,831.3843876331 1360.0,831.3843876331 1400.0,900.6664199358 1360.0,969.9484522386 1280.0,969.9484522386 1240.0,900.6664199358" fill="#283668" />
  <polygon points="1280.0,969.9484522386 1360.0,969.9484522386 1400.0,1039.2304845413 1360.0,1108.5125168441 1280.0,1108.5125168441 1240.0,1039.2304845413" fill="#2b3167" />
  <polygon points="1280.0,1108.5125168441 1360.0,1108.5125168441 1400.0,1177.7945491468 1360.0,1247.0765814496 1280.0,1247.0765814496 1240.0,1177.7945491468" fill="#4b3e76" />
  <polygon points="1280.0,1247.0765814496 1360.0,1247.0765814496 1400.0,1316.3586137523 1360.0,1385.6406460551 1280.0,1385.6406460551 1240.0,1316.3586137523" fill="#785082" />
  <polygon points="1280.0,1385.6406460551 1360.0,1385.6406460551 1400.0,1454.9226783579 1360.0,1524.2047106606 1280.0,1524.2047106606 1240.0,1454.9226783579" fill="#a86988" />
  <polygon points="1280.0,1524.2047106606 1360.0,1524.2047106606 1400.0,1593.4867429634 1360.0,1662.7687752661 1280.0,1662.7687752661 1240.0,1593.4867429634" fill="#b28894" />
  <polygon points="1280.0,1662.7687752661 1360.0,1662.7687752661 1400.0,1732.0508075689 1360.0,1801.3328398716 1280.0,1801.3328398716 1240.0,1732.0508075689" fill="#343757" />
  <polygon points="1280.0,1801.3328398716 1360.0,1801.3328398716 1400.0,1870.6148721744 1360.0,1939.8969044771 1280.0,1939.8969044771 1240.0,1870.6148721744" fill="#1c1d2c" />
  <polygon points="1280.0,1939.8969044771 1360.0,1939.8969044771 1400.0,2009.1789367799 1360.0,2078.4609690827 1280.0,2078.4609690827 1240.0,2009.1789367799" fill="#402222" />
  <polygon points="1280.0,2078.4609690827 1360.0,2078.4609690827 1400.0,2147.7430013854 1360.0,2217.0250336882 1280.0,2217.0250336882 1240.0,2147.7430013854" fill="#3b2722" />
  <polygon points="1400.0,-69.2820323028 1480.0,-69.2820323028 1520.0,0.0 1480.0,69.2820323028 1400.0,69.2820323028 1360.0,0.0" fill="#0c1a4a" />
  <polygon points="1400.0,69.2820323028 1480.0,69.2820323028 1520.0,138.5640646055 1480.0,207.8460969083 1400.0,207.8460969083 1360.0,138.5640646055" fill="#0c1c4f" />
  <polygon points="1400.0,207.8460969083 1480.0,207.8460969083 1520.0,277.128129211 1480.0,346.4101615138 1400.0,346.4101615138 1360.0,277.128129211" fill="#0e1d54" />
  <polygon points="1400.0,346.4101615138 1480.0,346.4101615138 1520.0,415.6921938165 1480.0,484.9742261193 1400.0,484.9742261193 1360.0,415.6921938165" fill="#13225d" />
  <polygon points="1400.0,484.9742261193 1480.0,484.9742261193 1520.0,554.256258422 1480.0,623.5382907248 1400.0,623.5382907248 1360.0,554.256258422" fill="#1c2665" />
  <polygon points="1400.0,623.5382907248 1480.0,623.5382907248 1520.0,692.8203230276 1480.0,762.1023553303 1400.0,762.1023553303 1360.0,692.8203230276" fill="#534d8e" />
  <polygon points="1400.0,762.1023553303 1480.0,762.1023553303 1520.0,831.3843876331 1480.0,900.6664199358 1400.0,900.6664199358 1360.0,831.3843876331" fill="#7a7ec4" />
  <polygon points="1400.0,900.6664199358 1480.0,900.6664199358 1520.0,969.9484522386 1480.0,1039.2304845413 1400.0,1039.2304845413 1360.0,969.9484522386" fill="#3a477f" />
  <polygon points="1400.0,1039.2304845413 1480.0,1039.2304845413 1520.0,1108.5125168441 1480.0,1177.7945491468 1400.0,1177.7945491468 1360.0,1108.5125168441" fill="#383b73" />
  <polygon points="1400.0,1177.7945491468 1480.0,1177.7945491468 1520.0,1247.0765814496 1480.0,1316.3586137523 1400.0,1316.3586137523 1360.0,1247.0765814496" fill="#5e477e" />
  <polygon points="1400.0,1316.3586137523 1480.0,1316.3586137523 1520.0,1385.6406460551 1480.0,1454.9226783579 1400.0,1454.9226783579 1360.0,1385.6406460551" fill="#915e86" />
  <polygon points="1400.0,1454.9226783579 1480.0,1454.9226783579 1520.0,1524.2047106606 1480.0,1593.4867429634 1400.0,1593.4867429634 1360.0,1524.2047106606" fill="#c38685" />
  <polygon points="1400.0,1593.4867429634 1480.0,1593.4867429634 1520.0,1662.7687752661 1480.0,1732.0508075689 1400.0,1732.0508075689 1360.0,1662.7687752661" fill="#7e6c86" />
  <polygon points="1400.0,1732.0508075689 1480.0,1732.0508075689 1520.0,1801.3328398716 1480.0,1870.6148721744 1400.0,1870.6148721744 1360.0,1801.3328398716" fill="#33293a" />
  <polygon points="1400.0,1870.6148721744 1480.0,1870.6148721744 1520.0,1939.8969044771 1480.0,2009.1789367799 1400.0,2009.1789367799 1360.0,1939.8969044771" fill="#4b2921" />
  <polygon points="1400.0,2009.1789367799 1480.0,2009.1789367799 1520.0,2078.4609690827 1480.0,2147.7430013854 1400.0,2147.7430013854 1360.0,2078.4609690827" fill="#42241c" />
  <polygon points="1520.0,0.0 1600.0,0.0 1640.0,69.2820323028 1600.0,138.5640646055 1520.0,138.5640646055 1480.0,69.2820323028" fill="#0c1c4e" />
  <polygon points="1520.0,138.5640646055 1600.0,138.5640646055 1640.0,207.8460969083 1600.0,277.128129211 1520.0,277.128129211 1480.0,207.8460969083" fill="#0e1e53" />
  <polygon points="1520.0,277.128129211 1600.0,277.128129211 1640.0,346.4101615138 1600.0,415.6921938165 1520.0,415.6921938165 1480.0,346.4101615138" fill="#102057" />
  <polygon points="1520.0,415.6921938165 1600.0,415.6921938165 1640.0,484.9742261193 1600.0,554.256258422 1520.0,554.256258422 1480.0,484.9742261193" fill="#192362" />
  <polygon points="1520.0,554.256258422 1600.0,554.256258422 1640.0,623.5382907248 1600.0,692.8203230276 1520.0,692.8203230276 1480.0,623.5382907248" fill="#252b6b" />
  <polygon points="1520.0,692.8203230276 1600.0,692.8203230276 1640.0,762.1023553303 1600.0,831.3843876331 1520.0,831.3843876331 1480.0,762.1023553303" fill="#393a80" />
  <polygon points="1520.0,831.3843876331 1600.0,831.3843876331 1640.0,900.6664199358 1600.0,969.9484522386 1520.0,969.9484522386 1480.0,900.6664199358" fill="#9f8fc9" />
  <polygon points="1520.0,969.9484522386 1600.0,969.9484522386 1640.0,1039.2304845413 1600.0,1108.5125168441 1520.0,1108.5125168441 1480.0,1039.2304845413" fill="#757bc2" />
  <polygon points="1520.0,1108.5125168441 1600.0,1108.5125168441 1640.0,1177.7945491468 1600.0,1247.0765814496 1520.0,1247.0765814496 1480.0,1177.7945491468" fill="#60599f" />
  <polygon points="1520.0,1247.0765814496 1600.0,1247.0765814496 1640.0,1316.3586137523 1600.0,1385.6406460551 1520.0,1385.6406460551 1480.0,1316.3586137523" fill="#846096" />
  <polygon points="1520.0,1385.6406460551 1600.0,1385.6406460551 1640.0,1454.9226783579 1600.0,1524.2047106606 1520.0,1524.2047106606 1480.0,1454.9226783579" fill="#b47687" />
  <polygon points="1520.0,1524.2047106606 1600.0,1524.2047106606 1640.0,1593.4867429634 1600.0,1662.7687752661 1520.0,1662.7687752661 1480.0,1593.4867429634" fill="#cda194" />
  <polygon points="1520.0,1662.7687752661 1600.0,1662.7687752661 1640.0,1732.0508075689 1600.0,1801.3328398716 1520.0,1801.3328398716 1480.0,1732.0508075689" fill="#5a4357" />
  <polygon points="1520.0,1801.3328398716 1600.0,1801.3328398716 1640.0,1870.6148721744 1600.0,1939.8969044771 1520.0,1939.8969044771 1480.0,1870.6148721744" fill="#472929" />
  <polygon points="1520.0,1939.8969044771 1600.0,1939.8969044771 1640.0,2009.1789367799 1600.0,2078.4609690827 1520.0,2078.4609690827 1480.0,2009.1789367799" fill="#311f1e" />
  <polygon points="1520.0,2078.4609690827 1600.0,2078.4609690827 1640.0,2147.7430013854 1600.0,2217.0250336882 1520.0,2217.0250336882 1480.0,2147.7430013854" fill="#170c17" />
  <polygon points="1640.0,-69.2820323028 1720.0,-69.2820323028 1760.0,0.0 1720.0,69.2820323028 1640.0,69.2820323028 1600.0,0.0" fill="#0e1e4d" />
  <polygon points="1640.0,69.2820323028 1720.0,69.2820323028 1760.0,138.5640646055 1720.0,207.8460969083 1640.0,207.8460969083 1600.0,138.5640646055" fill="#0c1c50" />
  <polygon points="1640.0,207.8460969083 1720.0,207.8460969083 1760.0,277.128129211 1720.0,346.4101615138 1640.0,346.4101615138 1600.0,277.128129211" fill="#0e1e51" />
  <polygon points="1640.0,346.4101615138 1720.0,346.4101615138 1760.0,415.6921938165 1720.0,484.9742261193 1640.0,484.9742261193 1600.0,415.6921938165" fill="#14225d" />
  <polygon points="1640.0,484.9742261193 1720.0,484.9742261193 1760.0,554.256258422 1720.0,623.5382907248 1640.0,623.5382907248 1600.0,554.256258422" fill="#1f2767" />
  <polygon points="1640.0,623.5382907248 1720.0,623.5382907248 1760.0,692.8203230276 1720.0,762.1023553303 1640.0,762.1023553303 1600.0,692.8203230276" fill="#313274" />
  <polygon points="1640.0,762.1023553303 1720.0,762.1023553303 1760.0,831.3843876331 1720.0,900.6664199358 1640.0,900.6664199358 1600.0,831.3843876331" fill="#423778" />
  <polygon points="1640.0,900.6664199358 1720.0,900.6664199358 1760.0,969.9484522386 1720.0,1039.2304845413 1640.0,1039.2304845413 1600.0,969.9484522386" fill="#593d7d" />
  <polygon points="1640.0,1039.2304845413 1720.0,1039.2304845413 1760.0,1108.5125168441 1720.0,1177.7945491468 1640.0,1177.7945491468 1600.0,1108.5125168441" fill="#7a4985" />
  <polygon points="1640.0,1177.7945491468 1720.0,1177.7945491468 1760.0,1247.0765814496 1720.0,1316.3586137523 1640.0,1316.3586137523 1600.0,1247.0765814496" fill="#8f5587" />
  <polygon points="1640.0,1316.3586137523 1720.0,1316.3586137523 1760.0,1385.6406460551 1720.0,1454.9226783579 1640.0,1454.9226783579 1600.0,1385.6406460551" fill="#af6a82" />
  <polygon points="1640.0,1454.9226783579 1720.0,1454.9226783579 1760.0,1524.2047106606 1720.0,1593.4867429634 1640.0,1593.4867429634 1600.0,1524.2047106606" fill="#d2987f" />
  <polygon points="1640.0,1593.4867429634 1720.0,1593.4867429634 1760.0,1662.7687752661 1720.0,1732.0508075689 1640.0,1732.0508075689 1600.0,1662.7687752661" fill="#a17882" />
  <polygon points="1640.0,1732.0508075689 1720.0,1732.0508075689 1760.0,1801.3328398716 1720.0,1870.6148721744 1640.0,1870.6148721744 1600.0,1801.3328398716" fill="#603334" />
  <polygon points="1640.0,1870.6148721744 1720.0,1870.6148721744 1760.0,1939.8969044771 1720.0,2009.1789367799 1640.0,2009.1789367799 1600.0,1939.8969044771" fill="#9c5533" />
  <polygon points="1640.0,2009.1789367799 1720.0,2009.1789367799 1760.0,2078.4609690827 1720.0,2147.7430013854 1640.0,2147.7430013854 1600.0,2078.4609690827" fill="#22121a" />
  <polygon points="1760.0,0.0 1840.0,0.0 1880.0,69.2820323028 1840.0,138.5640646055 1760.0,138.5640646055 1720.0,69.2820323028" fill="#0c1c4f" />
  <polygon points="1760.0,138.5640646055 1840.0,138.5640646055 1880.0,207.8460969083 1840.0,277.128129211 1760.0,277.128129211 1720.0,207.8460969083" fill="#192f6f" />
  <polygon points="1760.0,277.128129211 1840.0,277.128129211 1880.0,346.4101615138 1840.0,415.6921938165 1760.0,415.6921938165 1720.0,346.4101615138" fill="#112154" />
  <polygon points="1760.0,415.6921938165 1840.0,415.6921938165 1880.0,484.9742261193 1840.0,554.256258422 1760.0,554.256258422 1720.0,484.9742261193" fill="#1a2560" />
  <polygon points="1760.0,554.256258422 1840.0,554.256258422 1880.0,623.5382907248 1840.0,692.8203230276 1760.0,692.8203230276 1720.0,623.5382907248" fill="#2a2d6d" />
  <polygon points="1760.0,692.8203230276 1840.0,692.8203230276 1880.0,762.1023553303 1840.0,831.3843876331 1760.0,831.3843876331 1720.0,762.1023553303" fill="#3e377a" />
  <polygon points="1760.0,831.3843876331 1840.0,831.3843876331 1880.0,900.6664199358 1840.0,969.9484522386 1760.0,969.9484522386 1720.0,900.6664199358" fill="#5a3a78" />
  <polygon points="1760.0,969.9484522386 1840.0,969.9484522386 1880.0,1039.2304845413 1840.0,1108.5125168441 1760.0,1108.5125168441 1720.0,1039.2304845413" fill="#7d447e" />
  <polygon points="1760.0,1108.5125168441 1840.0,1108.5125168441 1880.0,1177.7945491468 1840.0,1247.0765814496 1760.0,1247.0765814496 1720.0,1177.7945491468" fill="#8b4f81" />
  <polygon points="1760.0,1247.0765814496 1840.0,1247.0765814496 1880.0,1316.3586137523 1840.0,1385.6406460551 1760.0,1385.6406460551 1720.0,1316.3586137523" fill="#a36181" />
  <polygon points="1760.0,1385.6406460551 1840.0,1385.6406460551 1880.0,1454.9226783579 1840.0,1524.2047106606 1760.0,1524.2047106606 1720.0,1454.9226783579" fill="#c68077" />
  <polygon points="1760.0,1524.2047106606 1840.0,1524.2047106606 1880.0,1593.4867429634 1840.0,1662.7687752661 1760.0,1662.7687752661 1720.0,1593.4867429634" fill="#e1ac8f" />
  <polygon points="1760.0,1662.7687752661 1840.0,1662.7687752661 1880.0,1732.0508075689 1840.0,1801.3328398716 1760.0,1801.3328398716 1720.0,1732.0508075689" fill="#984d47" />
  <polygon points="1760.0,1801.3328398716 1840.0,1801.3328398716 1880.0,1870.6148721744 1840.0,1939.8969044771 1760.0,1939.8969044771 1720.0,1870.6148721744" fill="#863c26" />
  <polygon points="1760.0,1939.8969044771 1840.0,1939.8969044771 1880.0,2009.1789367799 1840.0,2078.4609690827 1760.0,2078.4609690827 1720.0,2009.1789367799" fill="#803c2d" />
  <polygon points="1760.0,2078.4609690827 1840.0,2078.4609690827 1880.0,2147.7430013854 1840.0,2217.0250336882 1760.0,2217.0250336882 1720.0,2147.7430013854" fill="#160b17" />
  <polygon points="1880.0,-69.2820323028 1960.0,-69.2820323028 2000.0,0.0 1960.0,69.2820323028 1880.0,69.2820323028 1840.0,0.0" fill="#0c1c4c" />
  <polygon points="1880.0,69.2820323028 1960.0,69.2820323028 2000.0,138.5640646055 1960.0,207.8460969083 1880.0,207.8460969083 1840.0,138.5640646055" fill="#0c1d50" />
  <polygon points="1880.0,207.8460969083 1960.0,207.8460969083 2000.0,277.128129211 1960.0,346.4101615138 1880.0,346.4101615138 1840.0,277.128129211" fill="#14255f" />
  <polygon points="1880.0,346.4101615138 1960.0,346.4101615138 2000.0,415.6921938165 1960.0,484.9742261193 1880.0,484.9742261193 1840.0,415.6921938165" fill="#243784" />
  <polygon points="1880.0,484.9742261193 1960.0,484.9742261193 2000.0,554.256258422 1960.0,623.5382907248 1880.0,623.5382907248 1840.0,554.256258422" fill="#252a69" />
  <polygon points="1880.0,623.5382907248 1960.0,623.5382907248 2000.0,692.8203230276 1960.0,762.1023553303 1880.0,762.1023553303 1840.0,692.8203230276" fill="#373577" />
  <polygon points="1880.0,762.1023553303 1960.0,762.1023553303 2000.0,831.3843876331 1960.0,900.6664199358 1880.0,900.6664199358 1840.0,831.3843876331" fill="#4f3876" />
  <polygon points="1880.0,900.6664199358 1960.0,900.6664199358 2000.0,969.9484522386 1960.0,1039.2304845413 1880.0,1039.2304845413 1840.0,969.9484522386" fill="#704079" />
  <polygon points="1880.0,1039.2304845413 1960.0,1039.2304845413 2000.0,1108.5125168441 1960.0,1177.7945491468 1880.0,1177.7945491468 1840.0,1108.5125168441" fill="#8a487b" />
  <polygon points="1880.0,1177.7945491468 1960.0,1177.7945491468 2000.0,1247.0765814496 1960.0,1316.3586137523 1880.0,1316.3586137523 1840.0,1247.0765814496" fill="#995a7d" />
  <polygon points="1880.0,1316.3586137523 1960.0,1316.3586137523 2000.0,1385.6406460551 1960.0,1454.9226783579 1880.0,1454.9226783579 1840.0,1385.6406460551" fill="#ba6f73" />
  <polygon points="1880.0,1454.9226783579 1960.0,1454.9226783579 2000.0,1524.2047106606 1960.0,1593.4867429634 1880.0,1593.4867429634 1840.0,1524.2047106606" fill="#e4aa74" />
  <polygon points="1880.0,1593.4867429634 1960.0,1593.4867429634 2000.0,1662.7687752661 1960.0,1732.0508075689 1880.0,1732.0508075689 1840.0,1662.7687752661" fill="#d4836a" />
  <polygon points="1880.0,1732.0508075689 1960.0,1732.0508075689 2000.0,1801.3328398716 1960.0,1870.6148721744 1880.0,1870.6148721744 1840.0,1801.3328398716" fill="#bd6131" />
  <polygon points="1880.0,1870.6148721744 1960.0,1870.6148721744 2000.0,1939.8969044771 1960.0,2009.1789367799 1880.0,2009.1789367799 1840.0,1939.8969044771" fill="#3b1e1a" />
  <polygon points="1880.0,2009.1789367799 1960.0,2009.1789367799 2000.0,2078.4609690827 1960.0,2147.7430013854 1880.0,2147.7430013854 1840.0,2078.4609690827" fill="#130d1d" />
  <polygon points="2000.0,0.0 2080.0,0.0 2120.0,69.2820323028 2080.0,138.5640646055 2000.0,138.5640646055 1960.0,69.2820323028" fill="#0d1e50" />
  <polygon points="2000.0,138.5640646055 2080.0,138.5640646055 2120.0,207.8460969083 2080.0,277.128129211 2000.0,277.128129211 1960.0,207.8460969083" fill="#0f1e54" />
  <polygon points="2000.0,277.128129211 2080.0,277.128129211 2120.0,346.4101615138 2080.0,415.6921938165 2000.0,415.6921938165 1960.0,346.4101615138" fill="#16245e" />
  <polygon points="2000.0,415.6921938165 2080.0,415.6921938165 2120.0,484.9742261193 2080.0,554.256258422 2000.0,554.256258422 1960.0,484.9742261193" fill="#222a67" />
  <polygon points="2000.0,554.256258422 2080.0,554.256258422 2120.0,623.5382907248 2080.0,692.8203230276 2000.0,692.8203230276 1960.0,623.5382907248" fill="#2c2d6d" />
  <polygon points="2000.0,692.8203230276 2080.0,692.8203230276 2120.0,762.1023553303 2080.0,831.3843876331 2000.0,831.3843876331 1960.0,762.1023553303" fill="#463878" />
  <polygon points="2000.0,831.3843876331 2080.0,831.3843876331 2120.0,900.6664199358 2080.0,969.9484522386 2000.0,969.9484522386 1960.0,900.6664199358" fill="#6f3d76" />
  <polygon points="2000.0,969.9484522386 2080.0,969.9484522386 2120.0,1039.2304845413 2080.0,1108.5125168441 2000.0,1108.5125168441 1960.0,1039.2304845413" fill="#914477" />
  <polygon points="2000.0,1108.5125168441 2080.0,1108.5125168441 2120.0,1177.7945491468 2080.0,1247.0765814496 2000.0,1247.0765814496 1960.0,1177.7945491468" fill="#96527a" />
  <polygon points="2000.0,1247.0765814496 2080.0,1247.0765814496 2120.0,1316.3586137523 2080.0,1385.6406460551 2000.0,1385.6406460551 1960.0,1316.3586137523" fill="#af6471" />
  <polygon points="2000.0,1385.6406460551 2080.0,1385.6406460551 2120.0,1454.9226783579 2080.0,1524.2047106606 2000.0,1524.2047106606 1960.0,1454.9226783579" fill="#d58965" />
  <polygon points="2000.0,1524.2047106606 2080.0,1524.2047106606 2120.0,1593.4867429634 2080.0,1662.7687752661 2000.0,1662.7687752661 1960.0,1593.4867429634" fill="#f4bc79" />
  <polygon points="2000.0,1662.7687752661 2080.0,1662.7687752661 2120.0,1732.0508075689 2080.0,1801.3328398716 2000.0,1801.3328398716 1960.0,1732.0508075689" fill="#cd633f" />
  <polygon points="2000.0,1801.3328398716 2080.0,1801.3328398716 2120.0,1870.6148721744 2080.0,1939.8969044771 2000.0,1939.8969044771 1960.0,1870.6148721744" fill="#3d1f1a" />
  <polygon points="2000.0,1939.8969044771 2080.0,1939.8969044771 2120.0,2009.1789367799 2080.0,2078.4609690827 2000.0,2078.4609690827 1960.0,2009.1789367799" fill="#1c151c" />
  <polygon points="2000.0,2078.4609690827 2080.0,2078.4609690827 2120.0,2147.7430013854 2080.0,2217.0250336882 2000.0,2217.0250336882 1960.0,2147.7430013854" fill="#140f21" />
  <polygon points="2120.0,-69.2820323028 2200.0,-69.2820323028 2240.0,0.0 2200.0,69.2820323028 2120.0,69.2820323028 2080.0,0.0" fill="#0b1c4b" />
  <polygon points="2120.0,69.2820323028 2200.0,69.2820323028 2240.0,138.5640646055 2200.0,207.8460969083 2120.0,207.8460969083 2080.0,138.5640646055" fill="#0c1d50" />
  <polygon points="2120.0,207.8460969083 2200.0,207.8460969083 2240.0,277.128129211 2200.0,346.4101615138 2120.0,346.4101615138 2080.0,277.128129211" fill="#111f58" />
  <polygon points="2120.0,346.4101615138 2200.0,346.4101615138 2240.0,415.6921938165 2200.0,484.9742261193 2120.0,484.9742261193 2080.0,415.6921938165" fill="#1c2562" />
  <polygon points="2120.0,484.9742261193 2200.0,484.9742261193 2240.0,554.256258422 2200.0,623.5382907248 2120.0,623.5382907248 2080.0,554.256258422" fill="#2f2b6a" />
  <polygon points="2120.0,623.5382907248 2200.0,623.5382907248 2240.0,692.8203230276 2200.0,762.1023553303 2120.0,762.1023553303 2080.0,692.8203230276" fill="#423372" />
  <polygon points="2120.0,762.1023553303 2200.0,762.1023553303 2240.0,831.3843876331 2200.0,900.6664199358 2120.0,900.6664199358 2080.0,831.3843876331" fill="#5b3871" />
  <polygon points="2120.0,900.6664199358 2200.0,900.6664199358 2240.0,969.9484522386 2200.0,1039.2304845413 2120.0,1039.2304845413 2080.0,969.9484522386" fill="#843f6f" />
  <polygon points="2120.0,1039.2304845413 2200.0,1039.2304845413 2240.0,1108.5125168441 2200.0,1177.7945491468 2120.0,1177.7945491468 2080.0,1108.5125168441" fill="#934b78" />
  <polygon points="2120.0,1177.7945491468 2200.0,1177.7945491468 2240.0,1247.0765814496 2200.0,1316.3586137523 2120.0,1316.3586137523 2080.0,1247.0765814496" fill="#a55d6d" />
  <polygon points="2120.0,1316.3586137523 2200.0,1316.3586137523 2240.0,1385.6406460551 2200.0,1454.9226783579 2120.0,1454.9226783579 2080.0,1385.6406460551" fill="#ca725f" />
  <polygon points="2120.0,1454.9226783579 2200.0,1454.9226783579 2240.0,1524.2047106606 2200.0,1593.4867429634 2120.0,1593.4867429634 2080.0,1524.2047106606" fill="#f2bb5e" />
  <polygon points="2120.0,1593.4867429634 2200.0,1593.4867429634 2240.0,1662.7687752661 2200.0,1732.0508075689 2120.0,1732.0508075689 2080.0,1662.7687752661" fill="#ed9c58" />
  <polygon points="2120.0,1732.0508075689 2200.0,1732.0508075689 2240.0,1801.3328398716 2200.0,1870.6148721744 2120.0,1870.6148721744 2080.0,1801.3328398716" fill="#562d1e" />
  <polygon points="2120.0,1870.6148721744 2200.0,1870.6148721744 2240.0,1939.8969044771 2200.0,2009.1789367799 2120.0,2009.1789367799 2080.0,1939.8969044771" fill="#1d1418" />
  <polygon points="2120.0,2009.1789367799 2200.0,2009.1789367799 2240.0,2078.4609690827 2200.0,2147.7430013854 2120.0,2147.7430013854 2080.0,2078.4609690827" fill="#1c111e" />
  <polygon points="2240.0,0.0 2320.0,0.0 2360.0,69.2820323028 2320.0,138.5640646055 2240.0,138.5640646055 2200.0,69.2820323028" fill="#0c1c4d" />
  <polygon points="2240.0,138.5640646055 2320.0,138.5640646055 2360.0,207.8460969083 2320.0,277.128129211 2240.0,277.128129211 2200.0,207.8460969083" fill="#0d1d53" />
  <polygon points="2240.0,277.128129211 2320.0,277.128129211 2360.0,346.4101615138 2320.0,415.6921938165 2240.0,415.6921938165 2200.0,346.4101615138" fill="#18225e" />
  <polygon points="2240.0,415.6921938165 2320.0,415.6921938165 2360.0,484.9742261193 2320.0,554.256258422 2240.0,554.256258422 2200.0,484.9742261193" fill="#2c2865" />
  <polygon points="2240.0,554.256258422 2320.0,554.256258422 2360.0,623.5382907248 2320.0,692.8203230276 2240.0,692.8203230276 2200.0,623.5382907248" fill="#422d6b" />
  <polygon points="2240.0,692.8203230276 2320.0,692.8203230276 2360.0,762.1023553303 2320.0,831.3843876331 2240.0,831.3843876331 2200.0,762.1023553303" fill="#5b3470" />
  <polygon points="2240.0,831.3843876331 2320.0,831.3843876331 2360.0,900.6664199358 2320.0,969.9484522386 2240.0,969.9484522386 2200.0,900.6664199358" fill="#78396b" />
  <polygon points="2240.0,969.9484522386 2320.0,969.9484522386 2360.0,1039.2304845413 2320.0,1108.5125168441 2240.0,1108.5125168441 2200.0,1039.2304845413" fill="#924374" />
  <polygon points="2240.0,1108.5125168441 2320.0,1108.5125168441 2360.0,1177.7945491468 2320.0,1247.0765814496 2240.0,1247.0765814496 2200.0,1177.7945491468" fill="#9e556f" />
  <polygon points="2240.0,1247.0765814496 2320.0,1247.0765814496 2360.0,1316.3586137523 2320.0,1385.6406460551 2240.0,1385.6406460551 2200.0,1316.3586137523" fill="#c2675e" />
  <polygon points="2240.0,1385.6406460551 2320.0,1385.6406460551 2360.0,1454.9226783579 2320.0,1524.2047106606 2240.0,1524.2047106606 2200.0,1454.9226783579" fill="#eda051" />
  <polygon points="2240.0,1524.2047106606 2320.0,1524.2047106606 2360.0,1593.4867429634 2320.0,1662.7687752661 2240.0,1662.7687752661 2200.0,1593.4867429634" fill="#fadea9" />
  <polygon points="2240.0,1662.7687752661 2320.0,1662.7687752661 2360.0,1732.0508075689 2320.0,1801.3328398716 2240.0,1801.3328398716 2200.0,1732.0508075689" fill="#914e2b" />
  <polygon points="2240.0,1801.3328398716 2320.0,1801.3328398716 2360.0,1870.6148721744 2320.0,1939.8969044771 2240.0,1939.8969044771 2200.0,1870.6148721744" fill="#261818" />
  <polygon points="2240.0,1939.8969044771 2320.0,1939.8969044771 2360.0,2009.1789367799 2320.0,2078.4609690827 2240.0,2078.4609690827 2200.0,2009.1789367799" fill="#19141e" />
  <polygon points="2240.0,2078.4609690827 2320.0,2078.4609690827 2360.0,2147.7430013854 2320.0,2217.0250336882 2240.0,2217.0250336882 2200.0,2147.7430013854" fill="#19111f" />
  <polygon points="2360.0,-69.2820323028 2440.0,-69.2820323028 2480.0,0.0 2440.0,69.2820323028 2360.0,69.2820323028 2320.0,0.0" fill="#0c1b49" />
  <polygon points="2360.0,69.2820323028 2440.0,69.2820323028 2480.0,138.5640646055 2440.0,207.8460969083 2360.0,207.8460969083 2320.0,138.5640646055" fill="#0c1c4e" />
  <polygon points="2360.0,207.8460969083 2440.0,207.8460969083 2480.0,277.128129211 2440.0,346.4101615138 2360.0,346.4101615138 2320.0,277.128129211" fill="#121f56" />
  <polygon points="2360.0,346.4101615138 2440.0,346.4101615138 2480.0,415.6921938165 2440.0,484.9742261193 2360.0,484.9742261193 2320.0,415.6921938165" fill="#232561" />
  <polygon points="2360.0,484.9742261193 2440.0,484.9742261193 2480.0,554.256258422 2440.0,623.5382907248 2360.0,623.5382907248 2320.0,554.256258422" fill="#362a68" />
  <polygon points="2360.0,623.5382907248 2440.0,623.5382907248 2480.0,692.8203230276 2440.0,762.1023553303 2360.0,762.1023553303 2320.0,692.8203230276" fill="#53306c" />
  <polygon points="2360.0,762.1023553303 2440.0,762.1023553303 2480.0,831.3843876331 2440.0,900.6664199358 2360.0,900.6664199358 2320.0,831.3843876331" fill="#71396c" />
  <polygon points="2360.0,900.6664199358 2440.0,900.6664199358 2480.0,969.9484522386 2440.0,1039.2304845413 2360.0,1039.2304845413 2320.0,969.9484522386" fill="#923e6d" />
  <polygon points="2360.0,1039.2304845413 2440.0,1039.2304845413 2480.0,1108.5125168441 2440.0,1177.7945491468 2360.0,1177.7945491468 2320.0,1108.5125168441" fill="#a44a77" />
  <polygon points="2360.0,1177.7945491468 2440.0,1177.7945491468 2480.0,1247.0765814496 2440.0,1316.3586137523 2360.0,1316.3586137523 2320.0,1247.0765814496" fill="#b95d61" />
  <polygon points="2360.0,1316.3586137523 2440.0,1316.3586137523 2480.0,1385.6406460551 2440.0,1454.9226783579 2360.0,1454.9226783579 2320.0,1385.6406460551" fill="#e77a4f" />
  <polygon points="2360.0,1454.9226783579 2440.0,1454.9226783579 2480.0,1524.2047106606 2440.0,1593.4867429634 2360.0,1593.4867429634 2320.0,1524.2047106606" fill="#fbd56c" />
  <polygon points="2360.0,1593.4867429634 2440.0,1593.4867429634 2480.0,1662.7687752661 2440.0,1732.0508075689 2360.0,1732.0508075689 2320.0,1662.7687752661" fill="#d46f4c" />
  <polygon points="2360.0,1732.0508075689 2440.0,1732.0508075689 2480.0,1801.3328398716 2440.0,1870.6148721744 2360.0,1870.6148721744 2320.0,1801.3328398716" fill="#42201d" />
  <polygon points="2360.0,1870.6148721744 2440.0,1870.6148721744 2480.0,1939.8969044771 2440.0,2009.1789367799 2360.0,2009.1789367799 2320.0,1939.8969044771" fill="#382323" />
  <polygon points="2360.0,2009.1789367799 2440.0,2009.1789367799 2480.0,2078.4609690827 2440.0,2147.7430013854 2360.0,2147.7430013854 2320.0,2078.4609690827" fill="#191322" />
  <polygon points="2480.0,0.0 2560.0,0.0 2600.0,69.2820323028 2560.0,138.5640646055 2480.0,138.5640646055 2440.0,69.2820323028" fill="#0b1a48" />
  <polygon points="2480.0,138.5640646055 2560.0,138.5640646055 2600.0,207.8460969083 2560.0,277.128129211 2480.0,277.128129211 2440.0,207.8460969083" fill="#131c50" />
  <polygon points="2480.0,277.128129211 2560.0,277.128129211 2600.0,346.4101615138 2560.0,415.6921938165 2480.0,415.6921938165 2440.0,346.4101615138" fill="#1b205a" />
  <polygon points="2480.0,415.6921938165 2560.0,415.6921938165 2600.0,484.9742261193 2560.0,554.256258422 2480.0,554.256258422 2440.0,484.9742261193" fill="#3e334a" />
  <polygon points="2480.0,554.256258422 2560.0,554.256258422 2600.0,623.5382907248 2560.0,692.8203230276 2480.0,692.8203230276 2440.0,623.5382907248" fill="#3b2d34" />
  <polygon points="2480.0,692.8203230276 2560.0,692.8203230276 2600.0,762.1023553303 2560.0,831.3843876331 2480.0,831.3843876331 2440.0,762.1023553303" fill="#8b3e7a" />
  <polygon points="2480.0,831.3843876331 2560.0,831.3843876331 2600.0,900.6664199358 2560.0,969.9484522386 2480.0,969.9484522386 2440.0,900.6664199358" fill="#6d3d34" />
  <polygon points="2480.0,969.9484522386 2560.0,969.9484522386 2600.0,1039.2304845413 2560.0,1108.5125168441 2480.0,1108.5125168441 2440.0,1039.2304845413" fill="#b44b87" />
  <polygon points="2480.0,1108.5125168441 2560.0,1108.5125168441 2600.0,1177.7945491468 2560.0,1247.0765814496 2480.0,1247.0765814496 2440.0,1177.7945491468" fill="#bb5374" />
  <polygon points="2480.0,1247.0765814496 2560.0,1247.0765814496 2600.0,1316.3586137523 2560.0,1385.6406460551 2480.0,1385.6406460551 2440.0,1316.3586137523" fill="#d8644e" />
  <polygon points="2480.0,1385.6406460551 2560.0,1385.6406460551 2600.0,1454.9226783579 2560.0,1524.2047106606 2480.0,1524.2047106606 2440.0,1454.9226783579" fill="#f7b149" />
  <polygon points="2480.0,1524.2047106606 2560.0,1524.2047106606 2600.0,1593.4867429634 2560.0,1662.7687752661 2480.0,1662.7687752661 2440.0,1593.4867429634" fill="#df976f" />
  <polygon points="2480.0,1662.7687752661 2560.0,1662.7687752661 2600.0,1732.0508075689 2560.0,1801.3328398716 2480.0,1801.3328398716 2440.0,1732.0508075689" fill="#62211e" />
  <polygon points="2480.0,1801.3328398716 2560.0,1801.3328398716 2600.0,1870.6148721744 2560.0,1939.8969044771 2480.0,1939.8969044771 2440.0,1870.6148721744" fill="#1d1319" />
  <polygon points="2480.0,1939.8969044771 2560.0,1939.8969044771 2600.0,2009.1789367799 2560.0,2078.4609690827 2480.0,2078.4609690827 2440.0,2009.1789367799" fill="#181421" />
  <polygon points="2480.0,2078.4609690827 2560.0,2078.4609690827 2600.0,2147.7430013854 2560.0,2217.0250336882 2480.0,2217.0250336882 2440.0,2147.7430013854" fill="#160f1f" />
  <polygon points="2600.0,-69.2820323028 2680.0,-69.2820323028 2720.0,0.0 2680.0,69.2820323028 2600.0,69.2820323028 2560.0,0.0" fill="#0b1945" />
  <polygon points="2600.0,69.2820323028 2680.0,69.2820323028 2720.0,138.5640646055 2680.0,207.8460969083 2600.0,207.8460969083 2560.0,138.5640646055" fill="#141c4c" />
  <polygon points="2600.0,207.8460969083 2680.0,207.8460969083 2720.0,277.128129211 2680.0,346.4101615138 2600.0,346.4101615138 2560.0,277.128129211" fill="#312b3e" />
  <polygon points="2600.0,346.4101615138 2680.0,346.4101615138 2720.0,415.6921938165 2680.0,484.9742261193 2600.0,484.9742261193 2560.0,415.6921938165" fill="#2a265b" />
  <polygon points="2600.0,484.9742261193 2680.0,484.9742261193 2720.0,554.256258422 2680.0,623.5382907248 2600.0,623.5382907248 2560.0,554.256258422" fill="#151922" />
  <polygon points="2600.0,623.5382907248 2680.0,623.5382907248 2720.0,692.8203230276 2680.0,762.1023553303 2600.0,762.1023553303 2560.0,692.8203230276" fill="#4a3033" />
  <polygon points="2600.0,762.1023553303 2680.0,762.1023553303 2720.0,831.3843876331 2680.0,900.6664199358 2600.0,900.6664199358 2560.0,831.3843876331" fill="#53313c" />
  <polygon points="2600.0,900.6664199358 2680.0,900.6664199358 2720.0,969.9484522386 2680.0,1039.2304845413 2600.0,1039.2304845413 2560.0,969.9484522386" fill="#60332f" />
  <polygon points="2600.0,1039.2304845413 2680.0,1039.2304845413 2720.0,1108.5125168441 2680.0,1177.7945491468 2600.0,1177.7945491468 2560.0,1108.5125168441" fill="#c9578b" />
  <polygon points="2600.0,1177.7945491468 2680.0,1177.7945491468 2720.0,1247.0765814496 2680.0,1316.3586137523 2600.0,1316.3586137523 2560.0,1247.0765814496" fill="#c75453" />
  <polygon points="2600.0,1316.3586137523 2680.0,1316.3586137523 2720.0,1385.6406460551 2680.0,1454.9226783579 2600.0,1454.9226783579 2560.0,1385.6406460551" fill="#ee8a42" />
  <polygon points="2600.0,1454.9226783579 2680.0,1454.9226783579 2720.0,1524.2047106606 2680.0,1593.4867429634 2600.0,1593.4867429634 2560.0,1524.2047106606" fill="#ba6232" />
  <polygon points="2600.0,1593.4867429634 2680.0,1593.4867429634 2720.0,1662.7687752661 2680.0,1732.0508075689 2600.0,1732.0508075689 2560.0,1662.7687752661" fill="#61211d" />
  <polygon points="2600.0,1732.0508075689 2680.0,1732.0508075689 2720.0,1801.3328398716 2680.0,1870.6148721744 2600.0,1870.6148721744 2560.0,1801.3328398716" fill="#241517" />
  <polygon points="2600.0,1870.6148721744 2680.0,1870.6148721744 2720.0,1939.8969044771 2680.0,2009.1789367799 2600.0,2009.1789367799 2560.0,1939.8969044771" fill="#16131b" />
  <polygon points="2600.0,2009.1789367799 2680.0,2009.1789367799 2720.0,2078.4609690827 2680.0,2147.7430013854 2600.0,2147.7430013854 2560.0,2078.4609690827" fill="#1a1322" />
  <polygon points="2720.0,0.0 2800.0,0.0 2840.0,69.2820323028 2800.0,138.5640646055 2720.0,138.5640646055 2680.0,69.2820323028" fill="#0e1b47" />
  <polygon points="2720.0,138.5640646055 2800.0,138.5640646055 2840.0,207.8460969083 2800.0,277.128129211 2720.0,277.128129211 2680.0,207.8460969083" fill="#11141d" />
  <polygon points="2720.0,277.128129211 2800.0,277.128129211 2840.0,346.4101615138 2800.0,415.6921938165 2720.0,415.6921938165 2680.0,346.4101615138" fill="#101519" />
  <polygon points="2720.0,415.6921938165 2800.0,415.6921938165 2840.0,484.9742261193 2800.0,554.256258422 2720.0,554.256258422 2680.0,484.9742261193" fill="#111718" />
  <polygon points="2720.0,554.256258422 2800.0,554.256258422 2840.0,623.5382907248 2800.0,692.8203230276 2720.0,692.8203230276 2680.0,623.5382907248" fill="#0d1415" />
  <polygon points="2720.0,692.8203230276 2800.0,692.8203230276 2840.0,762.1023553303 2800.0,831.3843876331 2720.0,831.3843876331 2680.0,762.1023553303" fill="#131714" />
  <polygon points="2720.0,831.3843876331 2800.0,831.3843876331 2840.0,900.6664199358 2800.0,969.9484522386 2720.0,969.9484522386 2680.0,900.6664199358" fill="#362329" />
  <polygon points="2720.0,969.9484522386 2800.0,969.9484522386 2840.0,1039.2304845413 2800.0,1108.5125168441 2720.0,1108.5125168441 2680.0,1039.2304845413" fill="#963335" />
  <polygon points="2720.0,1108.5125168441 2800.0,1108.5125168441 2840.0,1177.7945491468 2800.0,1247.0765814496 2720.0,1247.0765814496 2680.0,1177.7945491468" fill="#c54d68" />
  <polygon points="2720.0,1247.0765814496 2800.0,1247.0765814496 2840.0,1316.3586137523 2800.0,1385.6406460551 2720.0,1385.6406460551 2680.0,1316.3586137523" fill="#e26a42" />
  <polygon points="2720.0,1385.6406460551 2800.0,1385.6406460551 2840.0,1454.9226783579 2800.0,1524.2047106606 2720.0,1524.2047106606 2680.0,1454.9226783579" fill="#a3592d" />
  <polygon points="2720.0,1524.2047106606 2800.0,1524.2047106606 2840.0,1593.4867429634 2800.0,1662.7687752661 2720.0,1662.7687752661 2680.0,1593.4867429634" fill="#6a221c" />
  <polygon points="2720.0,1662.7687752661 2800.0,1662.7687752661 2840.0,1732.0508075689 2800.0,1801.3328398716 2720.0,1801.3328398716 2680.0,1732.0508075689" fill="#1d1313" />
  <polygon points="2720.0,1801.3328398716 2800.0,1801.3328398716 2840.0,1870.6148721744 2800.0,1939.8969044771 2720.0,1939.8969044771 2680.0,1870.6148721744" fill="#4e2320" />
  <polygon points="2720.0,1939.8969044771 2800.0,1939.8969044771 2840.0,2009.1789367799 2800.0,2078.4609690827 2720.0,2078.4609690827 2680.0,2009.1789367799" fill="#241116" />
  <polygon points="2720.0,2078.4609690827 2800.0,2078.4609690827 2840.0,2147.7430013854 2800.0,2217.0250336882 2720.0,2217.0250336882 2680.0,2147.7430013854" fill="#0e0712" />
  <polygon points="2840.0,-69.2820323028 2920.0,-69.2820323028 2960.0,0.0 2920.0,69.2820323028 2840.0,69.2820323028 2800.0,0.0" fill="#0e1a44" />
  <polygon points="2840.0,69.2820323028 2920.0,69.2820323028 2960.0,138.5640646055 2920.0,207.8460969083 2840.0,207.8460969083 2800.0,138.5640646055" fill="#1e1e3d" />
  <polygon points="2840.0,207.8460969083 2920.0,207.8460969083 2960.0,277.128129211 2920.0,346.4101615138 2840.0,346.4101615138 2800.0,277.128129211" fill="#0c111a" />
  <polygon points="2840.0,346.4101615138 2920.0,346.4101615138 2960.0,415.6921938165 2920.0,484.9742261193 2840.0,484.9742261193 2800.0,415.6921938165" fill="#071014" />
  <polygon points="2840.0,484.9742261193 2920.0,484.9742261193 2960.0,554.256258422 2920.0,623.5382907248 2840.0,623.5382907248 2800.0,554.256258422" fill="#091014" />
  <polygon points="2840.0,623.5382907248 2920.0,623.5382907248 2960.0,692.8203230276 2920.0,762.1023553303 2840.0,762.1023553303 2800.0,692.8203230276" fill="#161915" />
  <polygon points="2840.0,762.1023553303 2920.0,762.1023553303 2960.0,831.3843876331 2920.0,900.6664199358 2840.0,900.6664199358 2800.0,831.3843876331" fill="#1f1c1a" />
  <polygon points="2840.0,900.6664199358 2920.0,900.6664199358 2960.0,969.9484522386 2920.0,1039.2304845413 2840.0,1039.2304845413 2800.0,969.9484522386" fill="#21191e" />
  <polygon points="2840.0,1039.2304845413 2920.0,1039.2304845413 2960.0,1108.5125168441 2920.0,1177.7945491468 2840.0,1177.7945491468 2800.0,1108.5125168441" fill="#b3476a" />
  <polygon points="2840.0,1177.7945491468 2920.0,1177.7945491468 2960.0,1247.0765814496 2920.0,1316.3586137523 2840.0,1316.3586137523 2800.0,1247.0765814496" fill="#d85747" />
  <polygon points="2840.0,1316.3586137523 2920.0,1316.3586137523 2960.0,1385.6406460551 2920.0,1454.9226783579 2840.0,1454.9226783579 2800.0,1385.6406460551" fill="#9c4e2b" />
  <polygon points="2840.0,1454.9226783579 2920.0,1454.9226783579 2960.0,1524.2047106606 2920.0,1593.4867429634 2840.0,1593.4867429634 2800.0,1524.2047106606" fill="#401b19" />
  <polygon points="2840.0,1593.4867429634 2920.0,1593.4867429634 2960.0,1662.7687752661 2920.0,1732.0508075689 2840.0,1732.0508075689 2800.0,1662.7687752661" fill="#1f1311" />
  <polygon points="2840.0,1732.0508075689 2920.0,1732.0508075689 2960.0,1801.3328398716 2920.0,1870.6148721744 2840.0,1870.6148721744 2800.0,1801.3328398716" fill="#2e1d19" />
  <polygon points="2840.0,1870.6148721744 2920.0,1870.6148721744 2960.0,1939.8969044771 2920.0,2009.1789367799 2840.0,2009.1789367799 2800.0,1939.8969044771" fill="#481b16" />
  <polygon points="2840.0,2009.1789367799 2920.0,2009.1789367799 2960.0,2078.4609690827 2920.0,2147.7430013854 2840.0,2147.7430013854 2800.0,2078.4609690827" fill="#0e0b15" />
  <polygon points="2960.0,0.0 3040.0,0.0 3080.0,69.2820323028 3040.0,138.5640646055 2960.0,138.5640646055 2920.0,69.2820323028" fill="#1b1c2c" />
  <polygon points="2960.0,138.5640646055 3040.0,138.5640646055 3080.0,207.8460969083 3040.0,277.128129211 2960.0,277.128129211 2920.0,207.8460969083" fill="#0d111d" />
  <polygon points="2960.0,277.128129211 3040.0,277.128129211 3080.0,346.4101615138 3040.0,415.6921938165 2960.0,415.6921938165 2920.0,346.4101615138" fill="#060f12" />
  <polygon points="2960.0,415.6921938165 3040.0,415.6921938165 3080.0,484.9742261193 3040.0,554.256258422 2960.0,554.256258422 2920.0,484.9742261193" fill="#0b1213" />
  <polygon points="2960.0,554.256258422 3040.0,554.256258422 3080.0,623.5382907248 3040.0,692.8203230276 2960.0,692.8203230276 2920.0,623.5382907248" fill="#17171d" />
  <polygon points="2960.0,692.8203230276 3040.0,692.8203230276 3080.0,762.1023553303 3040.0,831.3843876331 2960.0,831.3843876331 2920.0,762.1023553303" fill="#111417" />
  <polygon points="2960.0,831.3843876331 3040.0,831.3843876331 3080.0,900.6664199358 3040.0,969.9484522386 2960.0,969.9484522386 2920.0,900.6664199358" fill="#1f191f" />
  <polygon points="2960.0,969.9484522386 3040.0,969.9484522386 3080.0,1039.2304845413 3040.0,1108.5125168441 2960.0,1108.5125168441 2920.0,1039.2304845413" fill="#923f64" />
  <polygon points="2960.0,1108.5125168441 3040.0,1108.5125168441 3080.0,1177.7945491468 3040.0,1247.0765814496 2960.0,1247.0765814496 2920.0,1177.7945491468" fill="#cd4f56" />
  <polygon points="2960.0,1247.0765814496 3040.0,1247.0765814496 3080.0,1316.3586137523 3040.0,1385.6406460551 2960.0,1385.6406460551 2920.0,1316.3586137523" fill="#904431" />
  <polygon points="2960.0,1385.6406460551 3040.0,1385.6406460551 3080.0,1454.9226783579 3040.0,1524.2047106606 2960.0,1524.2047106606 2920.0,1454.9226783579" fill="#371a1a" />
  <polygon points="2960.0,1524.2047106606 3040.0,1524.2047106606 3080.0,1593.4867429634 3040.0,1662.7687752661 2960.0,1662.7687752661 2920.0,1593.4867429634" fill="#2e1514" />
  <polygon points="2960.0,1662.7687752661 3040.0,1662.7687752661 3080.0,1732.0508075689 3040.0,1801.3328398716 2960.0,1801.3328398716 2920.0,1732.0508075689" fill="#0a0e0e" />
  <polygon points="2960.0,1801.3328398716 3040.0,1801.3328398716 3080.0,1870.6148721744 3040.0,1939.8969044771 2960.0,1939.8969044771 2920.0,1870.6148721744" fill="#351b19" />
  <polygon points="2960.0,1939.8969044771 3040.0,1939.8969044771 3080.0,2009.1789367799 3040.0,2078.4609690827 2960.0,2078.4609690827 2920.0,2009.1789367799" fill="#100a12" />
  <polygon points="2960.0,2078.4609690827 3040.0,2078.4609690827 3080.0,2147.7430013854 3040.0,2217.0250336882 2960.0,2217.0250336882 2920.0,2147.7430013854" fill="#0c0a18" />
  <polygon points="3080.0,-69.2820323028 3160.0,-69.2820323028 3200.0,0.0 3160.0,69.2820323028 3080.0,69.2820323028 3040.0,0.0" fill="#171b35" />
  <polygon points="3080.0,69.2820323028 3160.0,69.2820323028 3200.0,138.5640646055 3160.0,207.8460969083 3080.0,207.8460969083 3040.0,138.5640646055" fill="#0a1015" />
  <polygon points="3080.0,207.8460969083 3160.0,207.8460969083 3200.0,277.128129211 3160.0,346.4101615138 3080.0,346.4101615138 3040.0,277.128129211" fill="#050c13" />
  <polygon points="3080.0,346.4101615138 3160.0,346.4101615138 3200.0,415.6921938165 3160.0,484.9742261193 3080.0,484.9742261193 3040.0,415.6921938165" fill="#060e12" />
  <polygon points="3080.0,484.9742261193 3160.0,484.9742261193 3200.0,554.256258422 3160.0,623.5382907248 3080.0,623.5382907248 3040.0,554.256258422" fill="#1e1a26" />
  <polygon points="3080.0,623.5382907248 3160.0,623.5382907248 3200.0,692.8203230276 3160.0,762.1023553303 3080.0,762.1023553303 3040.0,692.8203230276" fill="#141519" />
  <polygon points="3080.0,762.1023553303 3160.0,762.1023553303 3200.0,831.3843876331 3160.0,900.6664199358 3080.0,900.6664199358 3040.0,831.3843876331" fill="#0c1114" />
  <polygon points="3080.0,900.6664199358 3160.0,900.6664199358 3200.0,969.9484522386 3160.0,1039.2304845413 3080.0,1039.2304845413 3040.0,969.9484522386" fill="#3c252c" />
  <polygon points="3080.0,1039.2304845413 3160.0,1039.2304845413 3200.0,1108.5125168441 3160.0,1177.7945491468 3080.0,1177.7945491468 3040.0,1108.5125168441" fill="#7c454a" />
  <polygon points="3080.0,1177.7945491468 3160.0,1177.7945491468 3200.0,1247.0765814496 3160.0,1316.3586137523 3080.0,1316.3586137523 3040.0,1247.0765814496" fill="#803f34" />
  <polygon points="3080.0,1316.3586137523 3160.0,1316.3586137523 3200.0,1385.6406460551 3160.0,1454.9226783579 3080.0,1454.9226783579 3040.0,1385.6406460551" fill="#2c181a" />
  <polygon points="3080.0,1454.9226783579 3160.0,1454.9226783579 3200.0,1524.2047106606 3160.0,1593.4867429634 3080.0,1593.4867429634 3040.0,1524.2047106606" fill="#201314" />
  <polygon points="3080.0,1593.4867429634 3160.0,1593.4867429634 3200.0,1662.7687752661 3160.0,1732.0508075689 3080.0,1732.0508075689 3040.0,1662.7687752661" fill="#131010" />
  <polygon points="3080.0,1732.0508075689 3160.0,1732.0508075689 3200.0,1801.3328398716 3160.0,1870.6148721744 3080.0,1870.6148721744 3040.0,1801.3328398716" fill="#101011" />
  <polygon points="3080.0,1870.6148721744 3160.0,1870.6148721744 3200.0,1939.8969044771 3160.0,2009.1789367799 3080.0,2009.1789367799 3040.0,1939.8969044771" fill="#0f0e17" />
  <polygon points="3080.0,2009.1789367799 3160.0,2009.1789367799 3200.0,2078.4609690827 3160.0,2147.7430013854 3080.0,2147.7430013854 3040.0,2078.4609690827" fill="#0c0b18" />
  <polygon points="3200.0,0.0 3280.0,0.0 3320.0,69.2820323028 3280.0,138.5640646055 3200.0,138.5640646055 3160.0,69.2820323028" fill="#141629" />
  <polygon points="3200.0,138.5640646055 3280.0,138.5640646055 3320.0,207.8460969083 3280.0,277.128129211 3200.0,277.128129211 3160.0,207.8460969083" fill="#0a1019" />
  <polygon points="3200.0,277.128129211 3280.0,277.128129211 3320.0,346.4101615138 3280.0,415.6921938165 3200.0,415.6921938165 3160.0,346.4101615138" fill="#050d13" />
  <polygon points="3200.0,415.6921938165 3280.0,415.6921938165 3320.0,484.9742261193 3280.0,554.256258422 3200.0,554.256258422 3160.0,484.9742261193" fill="#080f15" />
  <polygon points="3200.0,554.256258422 3280.0,554.256258422 3320.0,623.5382907248 3280.0,692.8203230276 3200.0,692.8203230276 3160.0,623.5382907248" fill="#0a0f12" />
  <polygon points="3200.0,692.8203230276 3280.0,692.8203230276 3320.0,762.1023553303 3280.0,831.3843876331 3200.0,831.3843876331 3160.0,762.1023553303" fill="#080e11" />
  <polygon points="3200.0,831.3843876331 3280.0,831.3843876331 3320.0,900.6664199358 3280.0,969.9484522386 3200.0,969.9484522386 3160.0,900.6664199358" fill="#1c1719" />
  <polygon points="3200.0,969.9484522386 3280.0,969.9484522386 3320.0,1039.2304845413 3280.0,1108.5125168441 3200.0,1108.5125168441 3160.0,1039.2304845413" fill="#5d313c" />
  <polygon points="3200.0,1108.5125168441 3280.0,1108.5125168441 3320.0,1177.7945491468 3280.0,1247.0765814496 3200.0,1247.0765814496 3160.0,1177.7945491468" fill="#c3504d" />
  <polygon points="3200.0,1247.0765814496 3280.0,1247.0765814496 3320.0,1316.3586137523 3280.0,1385.6406460551 3200.0,1385.6406460551 3160.0,1316.3586137523" fill="#1d161b" />
  <polygon points="3200.0,1385.6406460551 3280.0,1385.6406460551 3320.0,1454.9226783579 3280.0,1524.2047106606 3200.0,1524.2047106606 3160.0,1454.9226783579" fill="#171216" />
  <polygon points="3200.0,1524.2047106606 3280.0,1524.2047106606 3320.0,1593.4867429634 3280.0,1662.7687752661 3200.0,1662.7687752661 3160.0,1593.4867429634" fill="#1e1314" />
  <polygon points="3200.0,1662.7687752661 3280.0,1662.7687752661 3320.0,1732.0508075689 3280.0,1801.3328398716 3200.0,1801.3328398716 3160.0,1732.0508075689" fill="#090e11" />
  <polygon points="3200.0,1801.3328398716 3280.0,1801.3328398716 3320.0,1870.6148721744 3280.0,1939.8969044771 3200.0,1939.8969044771 3160.0,1870.6148721744" fill="#181215" />
  <polygon points="3200.0,1939.8969044771 3280.0,1939.8969044771 3320.0,2009.1789367799 3280.0,2078.4609690827 3200.0,2078.4609690827 3160.0,2009.1789367799" fill="#0d0d1a" />
  <polygon points="3200.0,2078.4609690827 3280.0,2078.4609690827 3320.0,2147.7430013854 3280.0,2217.0250336882 3200.0,2217.0250336882 3160.0,2147.7430013854" fill="#100c1b" />
  <polygon points="3320.0,-69.2820323028 3400.0,-69.2820323028 3440.0,0.0 3400.0,69.2820323028 3320.0,69.2820323028 3280.0,0.0" fill="#251e4c" />
  <polygon points="3320.0,69.2820323028 3400.0,69.2820323028 3440.0,138.5640646055 3400.0,207.8460969083 3320.0,207.8460969083 3280.0,138.5640646055" fill="#191832" />
  <polygon points="3320.0,207.8460969083 3400.0,207.8460969083 3440.0,277.128129211 3400.0,346.4101615138 3320.0,346.4101615138 3280.0,277.128129211" fill="#0b1014" />
  <polygon points="3320.0,346.4101615138 3400.0,346.4101615138 3440.0,415.6921938165 3400.0,484.9742261193 3320.0,484.9742261193 3280.0,415.6921938165" fill="#080f13" />
  <polygon points="3320.0,484.9742261193 3400.0,484.9742261193 3440.0,554.256258422 3400.0,623.5382907248 3320.0,623.5382907248 3280.0,554.256258422" fill="#060f12" />
  <polygon points="3320.0,623.5382907248 3400.0,623.5382907248 3440.0,692.8203230276 3400.0,762.1023553303 3320.0,762.1023553303 3280.0,692.8203230276" fill="#081015" />
  <polygon points="3320.0,762.1023553303 3400.0,762.1023553303 3440.0,831.3843876331 3400.0,900.6664199358 3320.0,900.6664199358 3280.0,831.3843876331" fill="#1b1822" />
  <polygon points="3320.0,900.6664199358 3400.0,900.6664199358 3440.0,969.9484522386 3400.0,1039.2304845413 3320.0,1039.2304845413 3280.0,969.9484522386" fill="#1c181d" />
  <polygon points="3320.0,1039.2304845413 3400.0,1039.2304845413 3440.0,1108.5125168441 3400.0,1177.7945491468 3320.0,1177.7945491468 3280.0,1108.5125168441" fill="#a44758" />
  <polygon points="3320.0,1177.7945491468 3400.0,1177.7945491468 3440.0,1247.0765814496 3400.0,1316.3586137523 3320.0,1316.3586137523 3280.0,1247.0765814496" fill="#dc583d" />
  <polygon points="3320.0,1316.3586137523 3400.0,1316.3586137523 3440.0,1385.6406460551 3400.0,1454.9226783579 3320.0,1454.9226783579 3280.0,1385.6406460551" fill="#1d1b1b" />
  <polygon points="3320.0,1454.9226783579 3400.0,1454.9226783579 3440.0,1524.2047106606 3400.0,1593.4867429634 3320.0,1593.4867429634 3280.0,1524.2047106606" fill="#0f1016" />
  <polygon points="3320.0,1593.4867429634 3400.0,1593.4867429634 3440.0,1662.7687752661 3400.0,1732.0508075689 3320.0,1732.0508075689 3280.0,1662.7687752661" fill="#0a0e15" />
  <polygon points="3320.0,1732.0508075689 3400.0,1732.0508075689 3440.0,1801.3328398716 3400.0,1870.6148721744 3320.0,1870.6148721744 3280.0,1801.3328398716" fill="#49271e" />
  <polygon points="3320.0,1870.6148721744 3400.0,1870.6148721744 3440.0,1939.8969044771 3400.0,2009.1789367799 3320.0,2009.1789367799 3280.0,1939.8969044771" fill="#1c0f1a" />
  <polygon points="3320.0,2009.1789367799 3400.0,2009.1789367799 3440.0,2078.4609690827 3400.0,2147.7430013854 3320.0,2147.7430013854 3280.0,2078.4609690827" fill="#130d1f" />
  <polygon points="3440.0,0.0 3520.0,0.0 3560.0,69.2820323028 3520.0,138.5640646055 3440.0,138.5640646055 3400.0,69.2820323028" fill="#29204f" />
  <polygon points="3440.0,138.5640646055 3520.0,138.5640646055 3560.0,207.8460969083 3520.0,277.128129211 3440.0,277.128129211 3400.0,207.8460969083" fill="#17172e" />
  <polygon points="3440.0,277.128129211 3520.0,277.128129211 3560.0,346.4101615138 3520.0,415.6921938165 3440.0,415.6921938165 3400.0,346.4101615138" fill="#1c1a34" />
  <polygon points="3440.0,415.6921938165 3520.0,415.6921938165 3560.0,484.9742261193 3520.0,554.256258422 3440.0,554.256258422 3400.0,484.9742261193" fill="#11141d" />
  <polygon points="3440.0,554.256258422 3520.0,554.256258422 3560.0,623.5382907248 3520.0,692.8203230276 3440.0,692.8203230276 3400.0,623.5382907248" fill="#0d1115" />
  <polygon points="3440.0,692.8203230276 3520.0,692.8203230276 3560.0,762.1023553303 3520.0,831.3843876331 3440.0,831.3843876331 3400.0,762.1023553303" fill="#1d1825" />
  <polygon points="3440.0,831.3843876331 3520.0,831.3843876331 3560.0,900.6664199358 3520.0,969.9484522386 3440.0,969.9484522386 3400.0,900.6664199358" fill="#1f1a25" />
  <polygon points="3440.0,969.9484522386 3520.0,969.9484522386 3560.0,1039.2304845413 3520.0,1108.5125168441 3440.0,1108.5125168441 3400.0,1039.2304845413" fill="#6b3042" />
  <polygon points="3440.0,1108.5125168441 3520.0,1108.5125168441 3560.0,1177.7945491468 3520.0,1247.0765814496 3440.0,1247.0765814496 3400.0,1177.7945491468" fill="#c74f45" />
  <polygon points="3440.0,1247.0765814496 3520.0,1247.0765814496 3560.0,1316.3586137523 3520.0,1385.6406460551 3440.0,1385.6406460551 3400.0,1316.3586137523" fill="#e77133" />
  <polygon points="3440.0,1385.6406460551 3520.0,1385.6406460551 3560.0,1454.9226783579 3520.0,1524.2047106606 3440.0,1524.2047106606 3400.0,1454.9226783579" fill="#49281f" />
  <polygon points="3440.0,1524.2047106606 3520.0,1524.2047106606 3560.0,1593.4867429634 3520.0,1662.7687752661 3440.0,1662.7687752661 3400.0,1593.4867429634" fill="#2e1e1d" />
  <polygon points="3440.0,1662.7687752661 3520.0,1662.7687752661 3560.0,1732.0508075689 3520.0,1801.3328398716 3440.0,1801.3328398716 3400.0,1732.0508075689" fill="#27161c" />
  <polygon points="3440.0,1801.3328398716 3520.0,1801.3328398716 3560.0,1870.6148721744 3520.0,1939.8969044771 3440.0,1939.8969044771 3400.0,1870.6148721744" fill="#251118" />
  <polygon points="3440.0,1939.8969044771 3520.0,1939.8969044771 3560.0,2009.1789367799 3520.0,2078.4609690827 3440.0,2078.4609690827 3400.0,2009.1789367799" fill="#100a19" />
  <polygon points="3440.0,2078.4609690827 3520.0,2078.4609690827 3560.0,2147.7430013854 3520.0,2217.0250336882 3440.0,2217.0250336882 3400.0,2147.7430013854" fill="#0d081a" />
  <polygon points="3560.0,-69.2820323028 3640.0,-69.2820323028 3680.0,0.0 3640.0,69.2820323028 3560.0,69.2820323028 3520.0,0.0" fill="#19204d" />
  <polygon points="3560.0,69.2820323028 3640.0,69.2820323028 3680.0,138.5640646055 3640.0,207.8460969083 3560.0,207.8460969083 3520.0,138.5640646055" fill="#252351" />
  <polygon points="3560.0,207.8460969083 3640.0,207.8460969083 3680.0,277.128129211 3640.0,346.4101615138 3560.0,346.4101615138 3520.0,277.128129211" fill="#212151" />
  <polygon points="3560.0,346.4101615138 3640.0,346.4101615138 3680.0,415.6921938165 3640.0,484.9742261193 3560.0,484.9742261193 3520.0,415.6921938165" fill="#272657" />
  <polygon points="3560.0,484.9742261193 3640.0,484.9742261193 3680.0,554.256258422 3640.0,623.5382907248 3560.0,623.5382907248 3520.0,554.256258422" fill="#2b2141" />
  <polygon points="3560.0,623.5382907248 3640.0,623.5382907248 3680.0,692.8203230276 3640.0,762.1023553303 3560.0,762.1023553303 3520.0,692.8203230276" fill="#372a52" />
  <polygon points="3560.0,762.1023553303 3640.0,762.1023553303 3680.0,831.3843876331 3640.0,900.6664199358 3560.0,900.6664199358 3520.0,831.3843876331" fill="#2a2036" />
  <polygon points="3560.0,900.6664199358 3640.0,900.6664199358 3680.0,969.9484522386 3640.0,1039.2304845413 3560.0,1039.2304845413 3520.0,969.9484522386" fill="#4e2a44" />
  <polygon points="3560.0,1039.2304845413 3640.0,1039.2304845413 3680.0,1108.5125168441 3640.0,1177.7945491468 3560.0,1177.7945491468 3520.0,1108.5125168441" fill="#a6444e" />
  <polygon points="3560.0,1177.7945491468 3640.0,1177.7945491468 3680.0,1247.0765814496 3640.0,1316.3586137523 3560.0,1316.3586137523 3520.0,1247.0765814496" fill="#d65c2e" />
  <polygon points="3560.0,1316.3586137523 3640.0,1316.3586137523 3680.0,1385.6406460551 3640.0,1454.9226783579 3560.0,1454.9226783579 3520.0,1385.6406460551" fill="#572332" />
  <polygon points="3560.0,1454.9226783579 3640.0,1454.9226783579 3680.0,1524.2047106606 3640.0,1593.4867429634 3560.0,1593.4867429634 3520.0,1524.2047106606" fill="#4c2a27" />
  <polygon points="3560.0,1593.4867429634 3640.0,1593.4867429634 3680.0,1662.7687752661 3640.0,1732.0508075689 3560.0,1732.0508075689 3520.0,1662.7687752661" fill="#37221f" />
  <polygon points="3560.0,1732.0508075689 3640.0,1732.0508075689 3680.0,1801.3328398716 3640.0,1870.6148721744 3560.0,1870.6148721744 3520.0,1801.3328398716" fill="#150c18" />
  <polygon points="3560.0,1870.6148721744 3640.0,1870.6148721744 3680.0,1939.8969044771 3640.0,2009.1789367799 3560.0,2009.1789367799 3520.0,1939.8969044771" fill="#0c0816" />
  <polygon points="3560.0,2009.1789367799 3640.0,2009.1789367799 3680.0,2078.4609690827 3640.0,2147.7430013854 3560.0,2147.7430013854 3520.0,2078.4609690827" fill="#0b0819" />
  <polygon points="3680.0,0.0 3760.0,0.0 3800.0,69.2820323028 3760.0,138.5640646055 3680.0,138.5640646055 3640.0,69.2820323028" fill="#1e224e" />
  <polygon points="3680.0,138.5640646055 3760.0,138.5640646055 3800.0,207.8460969083 3760.0,277.128129211 3680.0,277.128129211 3640.0,207.8460969083" fill="#1b2250" />
  <polygon points="3680.0,277.128129211 3760.0,277.128129211 3800.0,346.4101615138 3760.0,415.6921938165 3680.0,415.6921938165 3640.0,346.4101615138" fill="#232654" />
  <polygon points="3680.0,415.6921938165 3760.0,415.6921938165 3800.0,484.9742261193 3760.0,554.256258422 3680.0,554.256258422 3640.0,484.9742261193" fill="#2d295c" />
  <polygon points="3680.0,554.256258422 3760.0,554.256258422 3800.0,623.5382907248 3760.0,692.8203230276 3680.0,692.8203230276 3640.0,623.5382907248" fill="#392f62" />
  <polygon points="3680.0,692.8203230276 3760.0,692.8203230276 3800.0,762.1023553303 3760.0,831.3843876331 3680.0,831.3843876331 3640.0,762.1023553303" fill="#403261" />
  <polygon points="3680.0,831.3843876331 3760.0,831.3843876331 3800.0,900.6664199358 3760.0,969.9484522386 3680.0,969.9484522386 3640.0,900.6664199358" fill="#5a3760" />
  <polygon points="3680.0,969.9484522386 3760.0,969.9484522386 3800.0,1039.2304845413 3760.0,1108.5125168441 3680.0,1108.5125168441 3640.0,1039.2304845413" fill="#893e50" />
  <polygon points="3680.0,1108.5125168441 3760.0,1108.5125168441 3800.0,1177.7945491468 3760.0,1247.0765814496 3680.0,1247.0765814496 3640.0,1177.7945491468" fill="#853e2e" />
  <polygon points="3680.0,1247.0765814496 3760.0,1247.0765814496 3800.0,1316.3586137523 3760.0,1385.6406460551 3680.0,1385.6406460551 3640.0,1316.3586137523" fill="#4d292d" />
  <polygon points="3680.0,1385.6406460551 3760.0,1385.6406460551 3800.0,1454.9226783579 3760.0,1524.2047106606 3680.0,1524.2047106606 3640.0,1454.9226783579" fill="#3a1e29" />
  <polygon points="3680.0,1524.2047106606 3760.0,1524.2047106606 3800.0,1593.4867429634 3760.0,1662.7687752661 3680.0,1662.7687752661 3640.0,1593.4867429634" fill="#1b1223" />
  <polygon points="3680.0,1662.7687752661 3760.0,1662.7687752661 3800.0,1732.0508075689 3760.0,1801.3328398716 3680.0,1801.3328398716 3640.0,1732.0508075689" fill="#120d1b" />
  <polygon points="3680.0,1801.3328398716 3760.0,1801.3328398716 3800.0,1870.6148721744 3760.0,1939.8969044771 3680.0,1939.8969044771 3640.0,1870.6148721744" fill="#0e0b1d" />
  <polygon points="3680.0,1939.8969044771 3760.0,1939.8969044771 3800.0,2009.1789367799 3760.0,2078.4609690827 3680.0,2078.4609690827 3640.0,2009.1789367799" fill="#0e0b1e" />
  <polygon points="3680.0,2078.4609690827 3760.0,2078.4609690827 3800.0,2147.7430013854 3760.0,2217.0250336882 3680.0,2217.0250336882 3640.0,2147.7430013854" fill="#0b081b" />
</svg>